<svg xmlns="http://www.w3.org/2000/svg" aria-hidden="true" style="position:absolute;width:0;height:0;overflow:hidden">
  <defs>
    <symbol id="icon-anthena" viewBox="0 0 32 32">
      <path fill="#2e2f42" d="m30.773 22.098-8.443-8.505.937-4.615c.242.094.499.144.758.146h.006a2.159 2.159 0 1 0-2.008-1.435l-4.96.605L8.972.161a.534.534 0 0 0-.377-.16.532.532 0 0 0-.373.155L6.709 1.66a.534.534 0 0 0 0 .754l.814.826a14.943 14.943 0 0 0 2.519 17.663.513.513 0 0 0 .146.098c-.034.18-.051.364-.052.547v6.187h-6.4a2.67 2.67 0 0 0-2.667 2.667v1.067c0 .295.239.533.533.533h24.533a.533.533 0 0 0 .533-.533v-1.067a2.67 2.67 0 0 0-2.667-2.667h-6.4v-2.742a15.09 15.09 0 0 0 3.049.32 14.854 14.854 0 0 0 7.04-1.783l.818.823a.534.534 0 0 0 .377.16.532.532 0 0 0 .373-.155l1.513-1.504a.534.534 0 0 0 0-.754zM23.28 6.233a1.067 1.067 0 1 1 .753 1.822h-.003a1.067 1.067 0 0 1-.747-1.823h-.002zm-1.256 3.505-.598 2.946-1.175-1.182 1.774-1.763zm-.605-.902-1.92 1.909-1.485-1.493 3.405-.415zM24.004 28.8a1.6 1.6 0 0 1 1.6 1.6v.533H2.137V30.4a1.6 1.6 0 0 1 1.6-1.6h20.267zm-7.467-2.133v1.067h-5.333v-1.067h5.333zM11.204 25.6v-4.053c0-1.294 1.196-2.347 2.667-2.347s2.667 1.053 2.667 2.347V25.6h-5.333zm6.4-1.696v-2.357c0-1.882-1.675-3.413-3.733-3.413a3.8 3.8 0 0 0-3.281 1.786A13.87 13.87 0 0 1 8.311 4.033l18.602 18.708a13.818 13.818 0 0 1-9.309 1.163zm11.289-.684L7.836 2.039l.755-.752 7.935 7.98c.004 0 .006.007.01.01l13.115 13.191-.757.752z" style="fill:var(--color1, #2e2f42)"/>
      <path fill="#4d5ae5" d="M13.876 20.267h-.005a1.6 1.6 0 1 0-.004 3.2h.005a1.6 1.6 0 1 0 .004-3.2zm.373 1.978a.534.534 0 0 1-.752-.756.534.534 0 0 1 .373-.155.534.534 0 0 1 .374.911h.005z" style="fill:var(--color2, #4d5ae5)"/>
    </symbol>
    <symbol id="icon-astronaut" viewBox="0 0 32 32">
      <path fill="#4d5ae5" d="M31.974 4.524a.534.534 0 0 0-.43-.363l-1.91-.278-.855-1.731c-.179-.365-.777-.365-.956 0l-.855 1.731-1.91.278a.535.535 0 0 0-.296.91l1.383 1.348-.326 1.903c-.034.2.048.402.212.522a.53.53 0 0 0 .562.04l1.709-.899 1.709.899a.536.536 0 0 0 .775-.563l-.326-1.903 1.383-1.348a.536.536 0 0 0 .135-.547zm-2.463 1.327a.534.534 0 0 0-.153.472l.191 1.114-1-.526a.533.533 0 0 0-.498 0l-1.001.526.191-1.114a.534.534 0 0 0-.153-.472l-.81-.789 1.119-.163a.532.532 0 0 0 .402-.292l.5-1.013.5 1.013a.535.535 0 0 0 .402.292l1.119.163-.809.789zM26.133 20.522h-1.067v1.067h1.067v-1.067zM26.133 22.656h-1.067v1.067h1.067v-1.067zM27.2 21.589h-1.067v1.067H27.2v-1.067zM25.067 21.589H24v1.067h1.067v-1.067zM22.4 26.389h-1.067v1.067H22.4v-1.067zM22.4 28.522h-1.067v1.067H22.4v-1.067zM23.467 27.456H22.4v1.067h1.067v-1.067zM21.333 27.456h-1.067v1.067h1.067v-1.067zM16 24.256h-1.067v1.067H16v-1.067zM16 26.389h-1.067v1.067H16v-1.067zM17.067 25.322H16v1.067h1.067v-1.067zM14.933 25.322h-1.067v1.067h1.067v-1.067zM5.867 6.122H4.8v1.067h1.067V6.122zM5.867 8.255H4.8v1.067h1.067V8.255z" style="fill:var(--color2, #4d5ae5)"/>
      <path fill="#4d5ae5" d="M6.933 7.189H5.866v1.067h1.067V7.189zM4.8 7.189H3.733v1.067H4.8V7.189z" style="fill:var(--color2, #4d5ae5)"/>
      <path fill="#2e2f42" d="M24.715 14.159a1.775 1.775 0 0 0-1.188-.705 1.778 1.778 0 0 0-1.34.352l-1.252.96-1.898 1.417-1.358-.541c2.421-1.086 4.114-3.508 4.114-6.32 0-3.823-3.123-6.933-6.961-6.933s-6.961 3.11-6.961 6.933a6.86 6.86 0 0 0 1.12 3.758l-2.764-.024h-.005c-.009 0-.015.004-.023.005a.515.515 0 0 0-.155.031l-.038.013c-.006.003-.013.003-.019.006l-3.233 1.596-.001.001-1.893.911a.397.397 0 0 0-.063.035 1.779 1.779 0 0 0-.598 2.295c.22.429.595.745 1.056.889a1.776 1.776 0 0 0 1.378-.128l1.388-.738 2.264-1.169 1.357-.008L2.2 22.211l-.002.001-1.339 1.333c-.316.315-.49.732-.49 1.178s.174.863.49 1.179c.325.323.752.485 1.179.485s.854-.162 1.18-.485l1.314-1.309 1.741-1.3.901.897-1.762 1.754-.002.001-1.339 1.333c-.316.315-.49.732-.49 1.178s.174.863.49 1.179c.325.323.753.485 1.18.485s.855-.162 1.18-.485l3.482-3.467.001-.002 1.01-1-.004-.004c.006-.006.015-.009.022-.015l5.166-5.658 3.471.494a.52.52 0 0 0 .262-.033c.018-.006.033-.015.05-.023.019-.01.039-.015.058-.027l3.213-2.133c.012-.008.018-.021.029-.029.013-.01.029-.014.041-.026l1.271-1.191c.662-.62.753-1.635.212-2.362zM2.13 17.77a.714.714 0 0 1-.558.052.717.717 0 0 1-.213-1.26l1.314-.632.449 1.313-.992.527zm3.498-1.828-1.548.8-.439-1.283 2.027-1.001-.04 1.484zm15.099-6.62a5.79 5.79 0 0 1-.599 2.559l-4.181-1.899a1.863 1.863 0 0 0-.788-1.388l1.464-4.86c2.378.756 4.105 2.974 4.105 5.588zm-11.789 0c0-3.235 2.644-5.867 5.894-5.867.253 0 .5.021.745.052l-1.432 4.754c-.019-.001-.037-.006-.057-.006-1.033 0-1.873.837-1.873 1.867s.84 1.867 1.873 1.867c.694 0 1.294-.383 1.618-.945l3.862 1.755a5.894 5.894 0 0 1-4.737 2.39c-3.25 0-5.894-2.632-5.894-5.867zm5.956.8c0 .441-.362.8-.806.8s-.806-.359-.806-.8c0-.441.362-.8.806-.8s.806.359.806.8zM2.465 25.146a.608.608 0 0 1-.854.001.592.592 0 0 1 0-.844l.962-.958.851.848-.959.955zm3.214 3.734a.608.608 0 0 1-.855.001.592.592 0 0 1 0-.844l.963-.959.852.848-.96.955zm3.481-3.469-.002.001-1.765 1.76-.852-.848 1.763-1.755.002-.001c.04-.04.065-.088.09-.135.007-.014.02-.026.026-.04.017-.041.019-.085.026-.129.003-.025.014-.047.014-.073 0-.036-.013-.07-.02-.106-.006-.032-.006-.065-.019-.095a.55.55 0 0 0-.091-.138c-.01-.012-.014-.027-.025-.038h-.001l-.001-.002-1.607-1.6c-.017-.017-.039-.024-.058-.038a.507.507 0 0 0-.087-.058.515.515 0 0 0-.093-.033.507.507 0 0 0-.103-.02.5.5 0 0 0-.095.005.53.53 0 0 0-.104.02.477.477 0 0 0-.094.045c-.02.011-.042.015-.061.029L4.23 23.486l-.901-.897 2.399-2.386 4.361 4.289-.928.919zm6.819-7.017c-.015-.002-.03.004-.045.003a.556.556 0 0 0-.3.075.492.492 0 0 0-.083.061c-.013.011-.028.017-.04.029l-4.698 5.146-4.328-4.257 2.833-2.818a.534.534 0 0 0-.379-.911v-.001l-2.219.013.028-1.607 3.104.027a6.947 6.947 0 0 0 4.981 2.101c.437 0 .864-.045 1.279-.123.04.032.079.065.13.085l2.41.96.152.758.178.885-3.003-.427zm4.041.178-.313-1.558 1.446-1.08.947 1.257-2.08 1.381zm3.754-2.831-.838.785-.931-1.236.831-.637a.735.735 0 0 1 .543-.143.718.718 0 0 1 .48.284.713.713 0 0 1-.085.947z" style="fill:var(--color1, #2e2f42)"/>
      <path fill="#2e2f42" d="m13.602 18.544-2.143-2.133a.534.534 0 0 0-.753 0l-2.142 2.133a.537.537 0 0 0 0 .756l2.142 2.133a.536.536 0 0 0 .753 0l2.143-2.133a.535.535 0 0 0 0-.756zm-2.519 1.759-1.387-1.381 1.387-1.381 1.387 1.381-1.387 1.381zM17.164 5.071l-.258 1.036c.071.018 1.738.452 1.738 2.149h1.067c0-2.017-1.666-2.965-2.547-3.185zM19.711 9.322h-1.067v1.067h1.067V9.322z" style="fill:var(--color1, #2e2f42)"/>
    </symbol>
    <symbol id="icon-clock" viewBox="0 0 32 32">
      <path fill="#2e2f42" d="M31.297 15.301C31.295 6.849 24.442-.002 15.989 0S.686 6.855.688 15.308a15.304 15.304 0 0 0 10.649 14.576.662.662 0 0 0 .529-.065.637.637 0 0 0 .283-.356l3.865-12.25a1.912 1.912 0 1 0-.84-3.635l-5.106-5.107a.637.637 0 0 0-.902.902l5.103 5.109a1.876 1.876 0 0 0 .536 2.309l-3.683 11.673C3.844 25.783.118 17.71 2.799 10.432S13.553-.572 20.831 2.109c7.278 2.681 11.004 10.754 8.323 18.032a14.042 14.042 0 0 1-7.462 7.973l-.398-1.874a.637.637 0 0 0-1.049-.344l-3.837 3.426a.637.637 0 0 0 .231 1.084l4.899 1.564a.638.638 0 0 0 .819-.74l-.391-1.839a15.255 15.255 0 0 0 9.329-14.089zm-15.305-.637a.638.638 0 1 1 0 1.277.638.638 0 0 1 0-1.277zm2.101 14.864 2.184-1.948.603 2.84-2.787-.892z" style="fill:var(--color1, #2e2f42)"/>
      <path fill="#4d5ae5" d="M15.354 3.185V4.46a.638.638 0 1 0 1.276 0V3.185a.638.638 0 0 0-1.276 0zM3.876 14.664a.638.638 0 0 0 0 1.276h1.275a.638.638 0 1 0 0-1.276H3.876zM28.108 15.939a.638.638 0 1 0 0-1.276h-1.275a.638.638 0 0 0 0 1.276h1.275z" style="fill:var(--color2, #4d5ae5)"/>
    </symbol>
    <symbol id="icon-close-black" viewBox="0 0 32 32">
<path d="M32 3.223l-3.223-3.223-12.777 12.777-12.777-12.777-3.223 3.223 12.777 12.777-12.777 12.777 3.223 3.223 12.777-12.777 12.777 12.777 3.223-3.223-12.777-12.777 12.777-12.777z"></path>
</symbol>
    <symbol id="icon-diagram" viewBox="0 0 32 32">
      <path fill="#4d5ae5" d="M14.925 14.965h1.066v4.798h-1.066v-4.797zM19.19 17.097h1.066v2.665H19.19v-2.665zM10.661 18.696h1.066v1.066h-1.066v-1.066zM7.463 18.163h1.066v1.599H7.463v-1.599z" style="fill:var(--color2, #4d5ae5)"/>
      <path fill="#2e2f42" d="M1.599 28.291h25.587a1.6 1.6 0 0 0 1.599-1.599V24.56a1.6 1.6 0 0 0-1.599-1.599h-.533V9.668L29.681 6.8a1.608 1.608 0 1 0-.746-.763L26.654 8.2V6.97a1.6 1.6 0 0 0-1.599-1.599H3.733A1.6 1.6 0 0 0 2.134 6.97v15.992h-.533a1.6 1.6 0 0 0-1.599 1.599v2.132a1.6 1.6 0 0 0 1.599 1.599zM30.384 4.837a.533.533 0 1 1 0 1.067.533.533 0 0 1 0-1.067zM3.198 6.969c0-.294.239-.533.533-.533h21.322c.294 0 .533.239.533.533v2.239l-1.066 1.013V8.035a.533.533 0 0 0-.533-.533H4.797a.533.533 0 0 0-.533.533v13.326c0 .294.239.533.533.533h19.19a.533.533 0 0 0 .533-.533v-9.674l1.066-1.01v12.284H3.198V6.969zm4.798 6.93a1.598 1.598 0 1 0 1.107 2.749l1.853.93a.532.532 0 0 0 .636-.123l3.939-4.431 3.872 2.901a.533.533 0 0 0 .686-.039l3.365-3.188v8.131H5.33V8.569h18.124v2.66l-3.771 3.572-3.904-2.927a.533.533 0 0 0-.718.072l-3.993 4.493-1.493-.746c.011-.064.018-.129.02-.193a1.6 1.6 0 0 0-1.599-1.599zm.533 1.599a.533.533 0 1 1-1.067 0 .533.533 0 0 1 1.067 0zm3.198 8.529h5.331v.533a.533.533 0 0 1-.533.533h-4.264a.533.533 0 0 1-.533-.533v-.533zm-10.661.533c0-.294.239-.533.533-.533h9.062v.533a1.6 1.6 0 0 0 1.599 1.599h4.264a1.6 1.6 0 0 0 1.599-1.599v-.533h9.062c.294 0 .533.239.533.533v2.132a.533.533 0 0 1-.533.533H1.598a.533.533 0 0 1-.533-.533V24.56z" style="fill:var(--color1, #2e2f42)"/>
    </symbol>
    <symbol id="icon-facebook" viewBox="0 0 32 32">
      <path fill="#f4f4fd" d="M21.329 5.313h2.921V.225C23.746.156 22.013 0 19.994 0c-4.212 0-7.097 2.649-7.097 7.519V12H8.249v5.688h4.648V32h5.699V17.689h4.46l.708-5.688h-5.169V8.082c.001-1.644.444-2.769 2.735-2.769z" style="fill:var(--color3, #f4f4fd)"/>
    </symbol>
    <symbol id="icon-instagram" viewBox="0 0 32 32">
      <path d="M31.969 9.408c-.075-1.7-.35-2.869-.744-3.882a7.803 7.803 0 0 0-1.85-2.838A7.867 7.867 0 0 0 26.543.844C25.524.45 24.361.175 22.661.1 20.948.019 20.404 0 16.06 0s-4.888.019-6.595.094c-1.7.075-2.869.35-3.882.744a7.803 7.803 0 0 0-2.838 1.85A7.867 7.867 0 0 0 .901 5.52C.507 6.539.232 7.702.157 9.402c-.081 1.713-.1 2.257-.1 6.601s.019 4.888.094 6.595c.075 1.7.35 2.869.744 3.882a7.895 7.895 0 0 0 1.85 2.838 7.867 7.867 0 0 0 2.832 1.844c1.019.394 2.182.669 3.882.744 1.706.075 2.25.094 6.595.094s4.888-.018 6.595-.094c1.7-.075 2.869-.35 3.882-.744a8.181 8.181 0 0 0 4.682-4.682c.394-1.019.669-2.182.744-3.882.075-1.707.094-2.251.094-6.595s-.006-4.888-.081-6.595zm-2.882 13.065c-.069 1.563-.331 2.407-.55 2.969a5.307 5.307 0 0 1-3.038 3.038c-.563.219-1.413.481-2.969.55-1.688.075-2.194.094-6.464.094s-4.782-.018-6.464-.094c-1.563-.069-2.407-.331-2.969-.55a4.926 4.926 0 0 1-1.838-1.194 4.974 4.974 0 0 1-1.194-1.838c-.219-.563-.481-1.413-.55-2.969-.075-1.688-.094-2.194-.094-6.464s.019-4.782.094-6.464c.069-1.563.331-2.407.55-2.969a4.868 4.868 0 0 1 1.2-1.838A4.974 4.974 0 0 1 6.639 3.55c.563-.219 1.413-.481 2.969-.55 1.688-.075 2.194-.094 6.464-.094 4.276 0 4.782.019 6.464.094 1.563.069 2.407.331 2.969.55a4.914 4.914 0 0 1 1.838 1.194 4.974 4.974 0 0 1 1.194 1.838c.219.563.481 1.413.55 2.969.075 1.688.094 2.194.094 6.464s-.019 4.77-.094 6.457z"/>
      <path d="M16.059 7.782c-4.538 0-8.22 3.682-8.22 8.22s3.682 8.22 8.22 8.22 8.22-3.682 8.22-8.22-3.682-8.22-8.22-8.22zm0 13.553a5.333 5.333 0 0 1 0-10.664 5.333 5.333 0 0 1 0 10.664zM26.524 7.457a1.919 1.919 0 1 1-3.838 0 1.919 1.919 0 0 1 3.838 0z"/>
    </symbol>
    <symbol id="icon-linkedin" viewBox="0 0 32 32">
      <path d="M31.992 32v-.001H32V20.263c0-5.741-1.236-10.164-7.948-10.164-3.227 0-5.392 1.771-6.276 3.449h-.093v-2.913h-6.364v21.364h6.627V21.42c0-2.785.528-5.479 3.977-5.479 3.399 0 3.449 3.179 3.449 5.657v10.401h6.62zM.528 10.636h6.635V32H.528V10.636zM3.843 0C1.722 0 0 1.721 0 3.843s1.721 3.879 3.843 3.879c2.121 0 3.843-1.757 3.843-3.879A3.846 3.846 0 0 0 3.843 0z"/>
    </symbol>
    <symbol id="icon-logo-customers-1" viewBox="0 0 59 32">
<path d="M21.714 4l4.004 3.815-7.433-0.004v18.51h19.429v-7.077l4 3.811v-19.054h-20zM37.538 18.796l-11.354-10.817h11.354v10.817zM34.013 23.613h-12.653v-12.449h0.894v11.606h11.759v0.843zM23.883 29.749l-0.472-0.97h-0.389l0.684 1.284v0.748h0.353v-0.748l0.684-1.284h-0.388l-0.472 0.97zM25.622 28.78h0.084l0.767 2.031h-0.368l-0.164-0.476h-0.786l-0.164 0.476h-0.367l0.765-2.031h0.234zM25.249 30.058h0.595l-0.298-0.862-0.297 0.862zM27.704 29.721c-0.015-0.020-0.030-0.038-0.044-0.057-0.052-0.069-0.093-0.135-0.121-0.2s-0.043-0.132-0.043-0.201c0-0.106 0.022-0.197 0.066-0.273s0.106-0.135 0.186-0.176c0.080-0.042 0.173-0.063 0.28-0.063 0.103 0 0.192 0.021 0.266 0.063 0.075 0.041 0.133 0.095 0.173 0.163s0.061 0.142 0.061 0.223c0 0.064-0.012 0.123-0.035 0.176s-0.055 0.101-0.096 0.145c-0.041 0.044-0.088 0.085-0.142 0.124l-0.141 0.103 0.402 0.475c0.013-0.026 0.025-0.053 0.036-0.082 0.034-0.089 0.052-0.188 0.052-0.297h0.29c0 0.099-0.010 0.192-0.029 0.28s-0.049 0.17-0.091 0.245c-0.017 0.031-0.036 0.061-0.058 0.090l0.298 0.351h-0.389l-0.118-0.139c-0.064 0.049-0.133 0.086-0.208 0.114-0.099 0.035-0.204 0.053-0.315 0.053-0.135 0-0.252-0.025-0.35-0.074s-0.175-0.117-0.229-0.204c-0.053-0.087-0.080-0.186-0.080-0.297 0-0.083 0.017-0.155 0.052-0.218s0.081-0.122 0.141-0.176c0.055-0.050 0.118-0.1 0.188-0.15zM27.871 29.925l-0.042 0.031c-0.049 0.040-0.086 0.079-0.11 0.116s-0.039 0.070-0.046 0.1c-0.008 0.031-0.011 0.058-0.011 0.081 0 0.059 0.013 0.113 0.038 0.162s0.064 0.087 0.113 0.116c0.050 0.028 0.111 0.042 0.183 0.042 0.077 0 0.152-0.017 0.225-0.052 0.036-0.018 0.071-0.039 0.103-0.064l-0.452-0.532zM27.951 29.554l0.125-0.084c0.059-0.039 0.1-0.077 0.126-0.114s0.038-0.086 0.038-0.142c0-0.048-0.019-0.093-0.056-0.134s-0.090-0.061-0.158-0.061c-0.047 0-0.087 0.011-0.12 0.034s-0.057 0.050-0.074 0.087c-0.016 0.035-0.024 0.075-0.024 0.119 0 0.042 0.011 0.085 0.032 0.13s0.051 0.090 0.088 0.138c0.008 0.010 0.015 0.020 0.023 0.029zM31.505 30.15h-0.349c-0.010 0.088-0.032 0.163-0.064 0.225s-0.079 0.106-0.141 0.138c-0.061 0.032-0.142 0.047-0.241 0.047-0.082 0-0.152-0.016-0.211-0.049s-0.107-0.079-0.145-0.138c-0.037-0.059-0.065-0.131-0.084-0.213s-0.026-0.177-0.026-0.279v-0.172c0-0.108 0.010-0.204 0.029-0.287s0.051-0.156 0.091-0.213c0.040-0.058 0.090-0.101 0.149-0.131s0.129-0.045 0.209-0.045c0.098 0 0.177 0.017 0.237 0.050s0.106 0.080 0.137 0.142c0.032 0.062 0.052 0.137 0.061 0.225h0.349c-0.014-0.136-0.052-0.256-0.114-0.361s-0.148-0.187-0.259-0.247c-0.112-0.060-0.248-0.089-0.41-0.089-0.127 0-0.242 0.022-0.345 0.067s-0.188 0.109-0.261 0.194c-0.073 0.084-0.128 0.185-0.167 0.303s-0.057 0.25-0.057 0.396v0.169c0 0.146 0.019 0.278 0.056 0.396s0.093 0.219 0.165 0.303c0.072 0.083 0.158 0.147 0.258 0.192s0.213 0.067 0.339 0.067c0.164 0 0.303-0.030 0.417-0.089s0.203-0.141 0.266-0.244c0.063-0.104 0.1-0.223 0.112-0.356zM33.443 29.851v-0.112c0-0.153-0.020-0.291-0.061-0.412s-0.097-0.226-0.172-0.311c-0.074-0.087-0.163-0.152-0.266-0.197s-0.218-0.068-0.343-0.068c-0.125 0-0.239 0.023-0.342 0.068s-0.191 0.11-0.266 0.197c-0.074 0.086-0.132 0.189-0.173 0.311s-0.061 0.258-0.061 0.412v0.112c0 0.154 0.020 0.291 0.061 0.413s0.1 0.226 0.176 0.311c0.075 0.086 0.164 0.151 0.266 0.197s0.217 0.067 0.342 0.067c0.126 0 0.24-0.022 0.343-0.067s0.192-0.111 0.265-0.197c0.074-0.086 0.132-0.189 0.172-0.311s0.060-0.259 0.060-0.413zM33.092 29.737v0.114c0 0.113-0.011 0.214-0.033 0.301s-0.053 0.161-0.095 0.222c-0.042 0.059-0.093 0.105-0.153 0.135s-0.13 0.045-0.208 0.045c-0.077 0-0.146-0.015-0.206-0.045s-0.113-0.076-0.156-0.135c-0.043-0.060-0.075-0.134-0.098-0.222s-0.033-0.188-0.033-0.301v-0.114c0-0.113 0.011-0.213 0.033-0.3s0.054-0.16 0.096-0.219c0.043-0.059 0.094-0.104 0.155-0.134s0.129-0.046 0.206-0.046 0.147 0.015 0.208 0.046c0.061 0.030 0.113 0.074 0.155 0.134s0.075 0.132 0.096 0.219c0.022 0.087 0.033 0.186 0.033 0.3z"></path>
</symbol>
    <symbol id="icon-logo-customers-2" viewBox="0 0 59 32">
<path d="M28.636 3.391h-0.078c-0.12-0.007-0.24-0.010-0.36-0.013v0h-0.26c-0.227 0-0.458 0.006-0.688 0.017-0.017-0.001-0.035-0.001-0.052 0-2.082 0.118-4.123 0.638-6.009 1.533l-0.247 0.119v12.652l0.578-0.196c0.507-0.174 1.048-0.331 1.607-0.477 1.512-0.388 3.065-0.595 4.626-0.615v1.662c-0.207 0.002-0.408 0.007-0.609 0.017h-0.048c-1.201 0.066-2.393 0.249-3.559 0.546-1.477 0.37-2.901 0.925-4.24 1.652v-16.227c1.39-0.811 2.888-1.42 4.448-1.809 1.37-0.354 2.778-0.535 4.192-0.541h0.244c0.292 0.007 0.577 0.020 0.844 0.041 0.705 0.049 1.404 0.161 2.089 0.333v1.636c-0.666-0.155-1.342-0.257-2.024-0.305-0.014-0.001-0.028-0.002-0.041-0.004-0.141-0.012-0.282-0.024-0.414-0.024zM31.516 5.064c0.363 0.028 0.739 0.041 1.119 0.041 1.487-0.005 2.967-0.195 4.407-0.565 1.476-0.371 2.9-0.927 4.238-1.654v15.938c-1.391 0.81-2.889 1.419-4.449 1.809-1.37 0.352-2.778 0.533-4.192 0.539-1.072 0.009-2.14-0.117-3.18-0.375v-16.041c0.246 0.057 0.499 0.109 0.756 0.153 0.422 0.071 0.867 0.123 1.301 0.155zM39.627 5.187l-0.578 0.195c-0.532 0.179-1.068 0.339-1.608 0.481-1.57 0.403-3.183 0.61-4.804 0.616-0.377 0-0.724-0.010-1.060-0.032l-0.461-0.030v13.015l0.396 0.035c0.367 0.032 0.746 0.048 1.128 0.048 1.276-0.005 2.547-0.17 3.783-0.49 1.018-0.255 2.008-0.611 2.956-1.062l0.247-0.119v-12.656z"></path>
<path d="M20.421 25.836c-0.083-0.086-0.183-0.154-0.294-0.199s-0.23-0.066-0.349-0.061c-0.127-0.002-0.253 0.022-0.372 0.070-0.108 0.043-0.207 0.108-0.289 0.19-0.082 0.083-0.145 0.182-0.186 0.291-0.045 0.114-0.068 0.236-0.067 0.359v2.168c-0.005 0.153 0.024 0.305 0.085 0.445 0.051 0.111 0.125 0.21 0.217 0.291 0.087 0.073 0.188 0.126 0.298 0.154 0.105 0.030 0.214 0.045 0.324 0.045 0.121 0.001 0.24-0.025 0.35-0.076 0.108-0.047 0.207-0.116 0.289-0.201 0.080-0.084 0.145-0.183 0.189-0.291 0.046-0.109 0.070-0.227 0.069-0.346v-0.243h-0.567v0.193c0.002 0.066-0.010 0.132-0.033 0.193-0.018 0.046-0.047 0.088-0.082 0.122-0.035 0.028-0.075 0.050-0.119 0.062-0.038 0.013-0.078 0.020-0.119 0.020-0.051 0.006-0.102-0.002-0.149-0.022s-0.087-0.053-0.117-0.094c-0.053-0.087-0.080-0.188-0.075-0.291v-2.021c-0.004-0.112 0.020-0.223 0.069-0.324 0.029-0.046 0.071-0.082 0.12-0.105s0.104-0.032 0.157-0.025c0.049-0.002 0.097 0.008 0.141 0.030s0.082 0.053 0.112 0.092c0.063 0.083 0.097 0.186 0.094 0.291v0.187h0.561v-0.221c0.001-0.13-0.022-0.258-0.069-0.379-0.042-0.114-0.106-0.217-0.189-0.305z"></path>
<path d="M23.788 25.811c-0.181-0.153-0.409-0.237-0.645-0.238-0.115 0-0.23 0.021-0.338 0.061-0.11 0.039-0.212 0.1-0.299 0.177-0.094 0.084-0.169 0.188-0.22 0.304-0.057 0.132-0.085 0.276-0.082 0.42v2.079c-0.004 0.146 0.024 0.292 0.082 0.426 0.051 0.112 0.126 0.211 0.22 0.291 0.087 0.080 0.188 0.143 0.299 0.183 0.108 0.040 0.223 0.061 0.338 0.061s0.23-0.021 0.338-0.061c0.113-0.041 0.217-0.103 0.306-0.183 0.090-0.081 0.163-0.18 0.214-0.291 0.058-0.134 0.086-0.279 0.082-0.426v-2.079c0.003-0.144-0.025-0.288-0.082-0.42-0.050-0.115-0.123-0.218-0.214-0.304zM23.523 28.614c0.005 0.055-0.003 0.111-0.022 0.163s-0.050 0.099-0.090 0.138c-0.075 0.063-0.169 0.097-0.267 0.097s-0.192-0.034-0.267-0.097c-0.040-0.038-0.071-0.085-0.090-0.138s-0.027-0.108-0.022-0.163v-2.079c-0.005-0.055 0.003-0.111 0.022-0.163s0.050-0.099 0.090-0.138c0.075-0.063 0.169-0.097 0.267-0.097s0.192 0.034 0.267 0.097c0.040 0.038 0.071 0.085 0.090 0.138s0.027 0.108 0.022 0.163v2.079z"></path>
<path d="M28.21 29.543v-3.936h-0.545l-0.716 2.084h-0.010l-0.721-2.084h-0.539v3.936h0.562v-2.395h0.010l0.551 1.693h0.28l0.555-1.693h0.010v2.395h0.562z"></path>
<path d="M31.405 25.882c-0.087-0.097-0.196-0.171-0.318-0.215-0.132-0.043-0.269-0.063-0.408-0.061h-0.835v3.936h0.561v-1.537h0.289c0.175 0.008 0.349-0.029 0.506-0.108 0.128-0.071 0.234-0.175 0.308-0.301 0.065-0.105 0.109-0.221 0.129-0.343 0.022-0.148 0.032-0.298 0.030-0.448 0.006-0.189-0.013-0.378-0.055-0.562-0.037-0.136-0.108-0.261-0.207-0.362zM31.116 27.082c-0.002 0.071-0.020 0.141-0.052 0.205-0.032 0.061-0.083 0.109-0.145 0.138-0.083 0.037-0.174 0.054-0.265 0.049h-0.256v-1.338h0.289c0.087-0.004 0.174 0.013 0.253 0.049 0.058 0.033 0.104 0.084 0.132 0.145 0.031 0.069 0.047 0.144 0.049 0.219 0 0.083 0 0.17 0 0.262s0.006 0.186 0 0.27h-0.006z"></path>
<path d="M34.062 25.606h-0.46l-0.867 3.936h0.561l0.165-0.846h0.765l0.165 0.846h0.561l-0.889-3.936zM33.544 28.161l0.276-1.427h0.010l0.275 1.427h-0.561z"></path>
<path d="M37.686 27.978h-0.010l-0.847-2.371h-0.539v3.936h0.561v-2.367h0.012l0.857 2.367h0.528v-3.936h-0.561v2.371z"></path>
<path d="M41.113 25.606l-0.451 1.565h-0.012l-0.451-1.565h-0.594l0.77 2.273v1.664h0.561v-1.664l0.77-2.273h-0.594z"></path>
<path d="M18.857 30.654h0.27v0.759h0.184v-0.759h0.269v-0.155h-0.723v0.155z"></path>
<path d="M21.13 30.498l-0.354 0.914h0.195l0.075-0.208h0.364l0.078 0.208h0.2l-0.363-0.914h-0.195zM21.101 31.051l0.124-0.339 0.124 0.339h-0.249z"></path>
<path d="M23.376 31.076h0.211v0.118c-0.062 0.049-0.138 0.076-0.217 0.077-0.037 0.002-0.074-0.005-0.107-0.020s-0.063-0.038-0.086-0.067c-0.048-0.070-0.072-0.154-0.068-0.238 0-0.203 0.088-0.305 0.263-0.305 0.046-0.005 0.092 0.008 0.13 0.034s0.065 0.066 0.077 0.111l0.181-0.035c-0.039-0.179-0.168-0.269-0.387-0.269-0.117-0.003-0.232 0.039-0.319 0.118-0.046 0.045-0.082 0.1-0.104 0.161s-0.032 0.126-0.027 0.19c-0.005 0.125 0.036 0.248 0.117 0.343 0.045 0.046 0.099 0.082 0.159 0.105s0.124 0.033 0.188 0.029c0.143 0.004 0.282-0.048 0.387-0.145v-0.36h-0.396v0.154z"></path>
<path d="M25.67 30.498h-0.185v0.914h0.64v-0.155h-0.455v-0.759z"></path>
<path d="M27.61 30.498h-0.185v0.914h0.185v-0.914z"></path>
<path d="M29.507 31.109l-0.374-0.61h-0.179v0.914h0.172v-0.597l0.367 0.597h0.184v-0.914h-0.169v0.61z"></path>
<path d="M31.221 31.010h0.455v-0.155h-0.455v-0.201h0.49v-0.155h-0.675v0.914h0.694v-0.155h-0.509v-0.247z"></path>
<path d="M35.378 30.859h-0.36v-0.36h-0.184v0.914h0.184v-0.4h0.36v0.4h0.184v-0.914h-0.184v0.36z"></path>
<path d="M37.103 31.010h0.457v-0.155h-0.457v-0.201h0.492v-0.155h-0.675v0.914h0.692v-0.155h-0.509v-0.247z"></path>
<path d="M39.442 31.010c0.159-0.025 0.24-0.109 0.24-0.254 0.005-0.039-0.001-0.078-0.017-0.114s-0.041-0.067-0.073-0.089c-0.083-0.042-0.175-0.060-0.267-0.054h-0.387v0.914h0.184v-0.382h0.036c0.039-0.002 0.078 0.005 0.114 0.020 0.027 0.017 0.049 0.040 0.065 0.067l0.2 0.291h0.22l-0.111-0.179c-0.049-0.088-0.119-0.163-0.202-0.219zM39.257 30.884h-0.136v-0.23h0.145c0.063-0.005 0.126 0.002 0.187 0.022 0.013 0.012 0.024 0.026 0.031 0.043s0.010 0.034 0.009 0.052c-0.001 0.018-0.006 0.035-0.014 0.051s-0.020 0.029-0.035 0.040c-0.060 0.018-0.124 0.026-0.187 0.022z"></path>
<path d="M41.206 31.010h0.455v-0.155h-0.455v-0.201h0.492v-0.155h-0.676v0.914h0.694v-0.155h-0.509v-0.247z"></path>
</symbol>
    <symbol id="icon-logo-customers-3" viewBox="0 0 59 32">
<path d="M21.034 28.128c0.009 0 0.018 0.002 0.027 0.005s0.016 0.008 0.022 0.014l0.126 0.119c-0.098 0.096-0.219 0.173-0.355 0.225-0.159 0.057-0.331 0.085-0.503 0.081-0.162 0.003-0.323-0.023-0.473-0.076-0.135-0.048-0.257-0.121-0.357-0.213-0.102-0.095-0.18-0.207-0.23-0.329-0.055-0.136-0.082-0.278-0.080-0.422-0.002-0.144 0.027-0.288 0.087-0.423 0.055-0.122 0.138-0.234 0.244-0.329 0.108-0.093 0.237-0.166 0.379-0.214 0.155-0.051 0.321-0.077 0.487-0.076 0.155-0.003 0.309 0.020 0.453 0.069 0.125 0.046 0.24 0.111 0.339 0.19l-0.106 0.127c-0.007 0.009-0.016 0.017-0.027 0.023-0.012 0.007-0.028 0.011-0.043 0.009-0.016-0.001-0.032-0.006-0.046-0.014l-0.057-0.034-0.079-0.043c-0.034-0.016-0.069-0.030-0.106-0.042-0.047-0.014-0.095-0.026-0.144-0.034-0.062-0.010-0.125-0.014-0.188-0.014-0.12-0.001-0.239 0.018-0.35 0.057-0.104 0.036-0.197 0.090-0.274 0.159-0.079 0.073-0.139 0.16-0.178 0.253-0.044 0.107-0.066 0.22-0.065 0.334-0.002 0.116 0.020 0.23 0.065 0.34 0.038 0.093 0.098 0.179 0.175 0.252 0.072 0.068 0.162 0.122 0.262 0.156 0.103 0.036 0.213 0.055 0.325 0.054 0.064 0.001 0.129-0.003 0.192-0.011 0.104-0.011 0.204-0.042 0.292-0.090 0.044-0.025 0.086-0.053 0.125-0.084 0.016-0.013 0.038-0.021 0.060-0.022z"></path>
<path d="M24.678 27.532c0.002 0.143-0.027 0.285-0.085 0.419-0.051 0.122-0.132 0.233-0.238 0.326s-0.232 0.166-0.373 0.214c-0.309 0.101-0.65 0.101-0.959 0-0.14-0.049-0.266-0.122-0.371-0.214-0.105-0.095-0.187-0.206-0.24-0.329-0.114-0.271-0.114-0.568 0-0.84 0.054-0.122 0.135-0.235 0.24-0.33 0.106-0.090 0.232-0.16 0.371-0.206 0.308-0.102 0.651-0.102 0.959 0 0.14 0.049 0.267 0.122 0.372 0.214 0.104 0.094 0.185 0.204 0.238 0.325 0.058 0.135 0.087 0.278 0.085 0.422zM24.347 27.532c0.002-0.114-0.018-0.228-0.060-0.337-0.035-0.093-0.093-0.179-0.169-0.252-0.074-0.069-0.165-0.124-0.267-0.159-0.224-0.074-0.473-0.074-0.697 0-0.102 0.035-0.193 0.090-0.267 0.159-0.077 0.073-0.135 0.159-0.17 0.252-0.080 0.219-0.080 0.454 0 0.674 0.036 0.093 0.094 0.179 0.17 0.252 0.074 0.069 0.165 0.123 0.267 0.158 0.225 0.072 0.472 0.072 0.697 0 0.102-0.035 0.192-0.089 0.267-0.158 0.076-0.073 0.133-0.159 0.169-0.252 0.042-0.109 0.063-0.223 0.060-0.337z"></path>
<path d="M27.164 27.885l0.033 0.076c0.013-0.027 0.024-0.051 0.036-0.076s0.026-0.050 0.041-0.074l0.806-1.252c0.016-0.022 0.030-0.035 0.046-0.039 0.021-0.006 0.044-0.008 0.066-0.007h0.238v2.036h-0.282v-1.497c0-0.019 0-0.040 0-0.063-0.002-0.023-0.002-0.047 0-0.070l-0.811 1.269c-0.010 0.019-0.027 0.035-0.047 0.046s-0.045 0.017-0.069 0.017h-0.046c-0.025 0-0.049-0.006-0.069-0.017s-0.037-0.027-0.047-0.047l-0.834-1.277c0 0.024 0 0.049 0 0.073s0 0.046 0 0.065v1.497h-0.273v-2.032h0.238c0.022-0.001 0.045 0.001 0.066 0.007 0.020 0.008 0.035 0.022 0.044 0.039l0.823 1.253c0.016 0.023 0.030 0.047 0.041 0.073z"></path>
<path d="M30.197 27.784v0.763h-0.316v-2.034h0.704c0.133-0.002 0.265 0.013 0.393 0.044 0.102 0.025 0.197 0.068 0.278 0.127 0.070 0.055 0.124 0.123 0.158 0.199 0.037 0.083 0.055 0.171 0.054 0.26 0.001 0.089-0.018 0.178-0.058 0.26-0.038 0.078-0.096 0.148-0.17 0.203-0.081 0.061-0.176 0.107-0.279 0.135-0.123 0.034-0.251 0.049-0.38 0.047l-0.382-0.005zM30.197 27.566h0.382c0.083 0.001 0.165-0.010 0.244-0.031 0.065-0.019 0.125-0.049 0.177-0.088 0.047-0.037 0.084-0.083 0.107-0.135 0.026-0.054 0.039-0.113 0.038-0.171 0.004-0.057-0.007-0.113-0.032-0.166s-0.062-0.1-0.11-0.139c-0.12-0.080-0.272-0.119-0.424-0.109h-0.382v0.838z"></path>
<path d="M34.437 28.549h-0.249c-0.025 0.001-0.050-0.006-0.069-0.019-0.018-0.013-0.032-0.029-0.041-0.047l-0.215-0.492h-1.077l-0.222 0.492c-0.008 0.018-0.022 0.034-0.039 0.046-0.020 0.014-0.045 0.021-0.071 0.020h-0.249l0.946-2.036h0.328l0.959 2.036zM32.875 27.793h0.89l-0.375-0.829c-0.029-0.062-0.052-0.126-0.071-0.191l-0.036 0.106c-0.011 0.032-0.024 0.062-0.035 0.086l-0.372 0.828z"></path>
<path d="M35.8 26.522c0.019 0.009 0.035 0.021 0.047 0.036l1.38 1.535c0-0.024 0-0.049 0-0.071s0-0.046 0-0.067v-1.442h0.282v2.036h-0.158c-0.022 0.001-0.045-0.004-0.065-0.012-0.020-0.010-0.037-0.023-0.050-0.038l-1.379-1.534c0.002 0.023 0.002 0.047 0 0.070 0 0.023 0 0.043 0 0.062v1.452h-0.282v-2.036h0.167c0.020-0 0.039 0.003 0.057 0.009z"></path>
<path d="M39.834 27.739v0.809h-0.316v-0.809l-0.872-1.226h0.282c0.024-0.001 0.048 0.005 0.068 0.018 0.017 0.013 0.032 0.029 0.043 0.046l0.546 0.791c0.022 0.034 0.041 0.065 0.057 0.094s0.028 0.058 0.039 0.086l0.041-0.088c0.015-0.032 0.033-0.063 0.054-0.093l0.538-0.797c0.011-0.016 0.025-0.030 0.041-0.043 0.019-0.014 0.043-0.021 0.068-0.020h0.285l-0.874 1.232z"></path>
<path d="M27.008 23.095c0.137 0.015 0.276 0.027 0.416 0.038 2.128-0.813 3.929-2.145 5.176-3.828s1.887-3.643 1.838-5.634l-2.346-2.004c0.477 2.12 0.254 4.313-0.644 6.331s-2.436 3.783-4.441 5.098z"></path>
<path d="M26.17 23.002l0.063 0.011c2.143-1.31 3.776-3.138 4.69-5.25s1.064-4.408 0.433-6.594l-3.341-2.854c1.351 2.346 1.895 4.972 1.568 7.572s-1.511 5.067-3.414 7.115z"></path>
<path d="M37.5 16.024c-0.568 2.188-1.946 4.162-3.931 5.628-0.58 0.43-1.205 0.814-1.868 1.145 1.616-0.406 3.102-1.123 4.342-2.097s2.202-2.178 2.812-3.52l-1.355-1.156z"></path>
<path d="M36.968 15.702l-1.929-1.648c-0.037 1.879-0.662 3.716-1.811 5.318s-2.779 2.914-4.721 3.796h0.009c0.433-0 0.865-0.022 1.295-0.066 1.815-0.633 3.418-1.64 4.667-2.931s2.104-2.826 2.489-4.469z"></path>
<path d="M26.449 7.112l-2.301-1.969c-2.057 0.679-3.827 1.873-5.077 3.426s-1.922 3.392-1.928 5.276v0c0.008 2.082 0.828 4.103 2.331 5.742s3.603 2.803 5.967 3.308c2.111-2.197 3.346-4.912 3.528-7.75s-0.701-5.652-2.52-8.032z"></path>
<path d="M42.286 15.399c-0.008-2.47-1.161-4.838-3.205-6.585s-4.815-2.731-7.707-2.739c-1.336-0.001-2.661 0.21-3.907 0.621l14.090 12.039c0.482-1.064 0.73-2.196 0.729-3.337z"></path>
</symbol>
    <symbol id="icon-logo-customers-4" viewBox="0 0 59 32">
<path d="M13.759 12.296h-0.002c-1.363 0-2.468 0.996-2.468 2.225v0.002c0 1.229 1.105 2.225 2.468 2.225h0.002c1.363 0 2.468-0.996 2.468-2.225v-0.002c0-1.229-1.105-2.225-2.468-2.225z"></path>
<path d="M31.978 11.585c-0.004-1.707-0.758-3.343-2.096-4.551s-3.153-1.887-5.047-1.891v0c-1.894 0.003-3.709 0.683-5.049 1.89s-2.094 2.844-2.098 4.552v9.414c0 0 14.288-1.435 14.289-9.412v-0.001z"></path>
<path d="M6.286 24.088c0.003 1.188 0.528 2.326 1.46 3.166s2.194 1.314 3.511 1.317c1.317-0.003 2.579-0.477 3.511-1.317s1.456-1.978 1.46-3.165v-6.55c0 0-9.942 0.999-9.942 6.549zM11.257 25.262c-0.258 0-0.509-0.069-0.723-0.198s-0.381-0.312-0.479-0.527-0.124-0.45-0.074-0.678c0.050-0.228 0.174-0.437 0.356-0.601s0.414-0.276 0.666-0.321c0.252-0.045 0.514-0.022 0.752 0.067s0.441 0.239 0.584 0.432c0.143 0.193 0.219 0.42 0.219 0.652 0.001 0.154-0.033 0.308-0.098 0.451s-0.161 0.273-0.282 0.382c-0.121 0.109-0.265 0.196-0.423 0.256s-0.328 0.090-0.499 0.090v-0.004z"></path>
<path d="M20.348 23.151v2.438h-0.502v-2.438h0.502zM21.319 24.193v0.392h-1.108v-0.392h1.108zM21.436 23.151v0.393h-1.225v-0.393h1.225zM23.73 24.313v0.116c0 0.185-0.025 0.352-0.075 0.499s-0.121 0.273-0.213 0.377c-0.091 0.103-0.201 0.181-0.328 0.236-0.126 0.055-0.266 0.082-0.42 0.082-0.153 0-0.293-0.027-0.42-0.082-0.126-0.055-0.235-0.133-0.328-0.236-0.093-0.104-0.165-0.229-0.216-0.377-0.050-0.147-0.075-0.314-0.075-0.499v-0.116c0-0.186 0.025-0.353 0.075-0.499 0.050-0.147 0.121-0.273 0.213-0.377 0.093-0.104 0.202-0.183 0.328-0.238 0.127-0.055 0.267-0.082 0.42-0.082 0.154 0 0.294 0.027 0.42 0.082 0.127 0.055 0.237 0.134 0.328 0.238 0.093 0.104 0.164 0.229 0.214 0.377 0.051 0.146 0.077 0.312 0.077 0.499zM23.222 24.429v-0.119c0-0.13-0.012-0.243-0.035-0.342s-0.058-0.181-0.104-0.248-0.102-0.117-0.167-0.151c-0.066-0.035-0.141-0.052-0.226-0.052s-0.16 0.017-0.226 0.052c-0.065 0.034-0.12 0.084-0.166 0.151-0.045 0.067-0.079 0.15-0.102 0.248s-0.035 0.212-0.035 0.342v0.119c0 0.128 0.012 0.242 0.035 0.341 0.023 0.098 0.058 0.181 0.104 0.249 0.046 0.067 0.102 0.118 0.167 0.152s0.141 0.052 0.226 0.052c0.085 0 0.16-0.017 0.226-0.052s0.121-0.085 0.166-0.152c0.045-0.068 0.079-0.151 0.102-0.249 0.023-0.099 0.035-0.213 0.035-0.341zM25.36 24.951c0-0.044-0.007-0.083-0.020-0.117-0.012-0.036-0.036-0.068-0.070-0.097-0.035-0.030-0.083-0.060-0.146-0.089s-0.143-0.059-0.243-0.090c-0.11-0.036-0.215-0.076-0.315-0.121-0.098-0.045-0.185-0.096-0.261-0.156-0.075-0.060-0.134-0.13-0.177-0.209-0.042-0.079-0.064-0.171-0.064-0.276 0-0.102 0.022-0.194 0.067-0.276 0.045-0.084 0.107-0.155 0.188-0.214 0.080-0.060 0.175-0.107 0.285-0.139 0.11-0.032 0.232-0.049 0.363-0.049 0.18 0 0.337 0.032 0.47 0.097s0.238 0.154 0.311 0.266c0.075 0.113 0.112 0.242 0.112 0.387h-0.499c0-0.071-0.015-0.134-0.045-0.188-0.029-0.055-0.074-0.098-0.134-0.129-0.059-0.031-0.134-0.047-0.224-0.047-0.087 0-0.16 0.013-0.218 0.040-0.058 0.026-0.102 0.061-0.131 0.105-0.029 0.044-0.044 0.093-0.044 0.147 0 0.041 0.010 0.079 0.030 0.112 0.021 0.034 0.052 0.065 0.094 0.094s0.092 0.056 0.152 0.082c0.060 0.026 0.13 0.051 0.209 0.075 0.133 0.040 0.249 0.085 0.35 0.136 0.102 0.050 0.186 0.107 0.254 0.169s0.119 0.133 0.154 0.213c0.035 0.079 0.052 0.169 0.052 0.27 0 0.106-0.021 0.201-0.062 0.285s-0.101 0.155-0.179 0.213c-0.078 0.058-0.171 0.102-0.28 0.132s-0.229 0.045-0.363 0.045c-0.12 0-0.239-0.016-0.357-0.047-0.117-0.032-0.224-0.081-0.32-0.146-0.095-0.065-0.171-0.147-0.228-0.248s-0.085-0.219-0.085-0.357h0.504c0 0.076 0.012 0.14 0.035 0.192s0.056 0.095 0.099 0.127c0.044 0.032 0.095 0.056 0.154 0.070 0.060 0.015 0.126 0.022 0.198 0.022 0.087 0 0.158-0.012 0.214-0.037 0.057-0.025 0.099-0.059 0.126-0.102 0.028-0.044 0.042-0.093 0.042-0.147zM27.294 23.151v2.438h-0.501v-2.438h0.501zM28.044 23.151v0.393h-1.989v-0.393h1.989zM29.966 25.197v0.392h-1.297v-0.392h1.297zM28.832 23.151v2.438h-0.502v-2.438h0.502zM29.797 24.144v0.382h-1.128v-0.382h1.128zM29.964 23.151v0.393h-1.296v-0.393h1.296zM30.259 23.151h0.909c0.186 0 0.346 0.028 0.48 0.084 0.135 0.056 0.239 0.138 0.311 0.248s0.109 0.244 0.109 0.403c0 0.131-0.022 0.243-0.067 0.337-0.044 0.093-0.105 0.17-0.186 0.233-0.079 0.061-0.172 0.11-0.28 0.147l-0.159 0.084h-0.79l-0.003-0.392h0.588c0.088 0 0.161-0.016 0.219-0.047s0.102-0.075 0.131-0.131c0.030-0.056 0.045-0.12 0.045-0.194 0-0.078-0.015-0.146-0.044-0.203s-0.073-0.1-0.132-0.131-0.133-0.045-0.223-0.045h-0.407v2.044h-0.502v-2.438zM31.621 25.589l-0.556-1.086 0.531-0.003 0.562 1.066v0.023h-0.537zM34.258 24.72h-0.621v-0.392h0.621c0.096 0 0.174-0.016 0.234-0.047 0.060-0.032 0.104-0.077 0.132-0.134s0.042-0.121 0.042-0.192c0-0.073-0.014-0.14-0.042-0.203s-0.072-0.113-0.132-0.151-0.138-0.057-0.234-0.057h-0.447v2.044h-0.502v-2.438h0.949c0.191 0 0.354 0.035 0.49 0.104 0.137 0.068 0.242 0.162 0.315 0.283s0.109 0.258 0.109 0.413c0 0.157-0.036 0.294-0.109 0.408s-0.177 0.204-0.315 0.266c-0.136 0.062-0.3 0.094-0.49 0.094zM37.154 25.197v0.392h-1.297v-0.392h1.297zM36.021 23.151v2.438h-0.502v-2.438h0.502zM36.985 24.144v0.382h-1.128v-0.382h1.128zM37.153 23.151v0.393h-1.296v-0.393h1.296zM38.571 23.151v2.438h-0.501v-2.438h0.501zM39.321 23.151v0.393h-1.989v-0.393h1.989zM41.242 25.197v0.392h-1.297v-0.392h1.297zM40.109 23.151v2.438h-0.502v-2.438h0.502zM41.073 24.144v0.382h-1.128v-0.382h1.128zM41.241 23.151v0.393h-1.296v-0.393h1.296zM41.535 23.151h0.909c0.186 0 0.347 0.028 0.48 0.084 0.135 0.056 0.239 0.138 0.311 0.248s0.109 0.244 0.109 0.403c0 0.131-0.022 0.243-0.067 0.337-0.044 0.093-0.105 0.17-0.186 0.233-0.079 0.061-0.172 0.11-0.28 0.147l-0.159 0.084h-0.79l-0.003-0.392h0.588c0.088 0 0.161-0.016 0.219-0.047s0.102-0.075 0.131-0.131c0.030-0.056 0.045-0.12 0.045-0.194 0-0.078-0.014-0.146-0.044-0.203s-0.073-0.1-0.132-0.131c-0.059-0.030-0.133-0.045-0.223-0.045h-0.407v2.044h-0.502v-2.438zM42.898 25.589l-0.556-1.086 0.531-0.003 0.563 1.066v0.023h-0.537zM45.001 24.951c0-0.044-0.007-0.083-0.020-0.117-0.012-0.036-0.036-0.068-0.070-0.097-0.035-0.030-0.083-0.060-0.146-0.089s-0.143-0.059-0.243-0.090c-0.111-0.036-0.215-0.076-0.315-0.121-0.098-0.045-0.185-0.096-0.261-0.156-0.075-0.060-0.134-0.13-0.178-0.209-0.042-0.079-0.064-0.171-0.064-0.276 0-0.102 0.022-0.194 0.067-0.276 0.045-0.084 0.107-0.155 0.188-0.214 0.080-0.060 0.175-0.107 0.285-0.139 0.111-0.032 0.232-0.049 0.363-0.049 0.18 0 0.337 0.032 0.47 0.097s0.238 0.154 0.311 0.266c0.075 0.113 0.112 0.242 0.112 0.387h-0.499c0-0.071-0.015-0.134-0.045-0.188-0.029-0.055-0.074-0.098-0.134-0.129-0.059-0.031-0.134-0.047-0.224-0.047-0.087 0-0.16 0.013-0.218 0.040-0.058 0.026-0.102 0.061-0.131 0.105-0.029 0.044-0.044 0.093-0.044 0.147 0 0.041 0.010 0.079 0.030 0.112 0.021 0.034 0.052 0.065 0.094 0.094s0.092 0.056 0.152 0.082c0.060 0.026 0.13 0.051 0.209 0.075 0.133 0.040 0.249 0.085 0.35 0.136 0.102 0.050 0.186 0.107 0.254 0.169s0.119 0.133 0.154 0.213c0.035 0.079 0.052 0.169 0.052 0.27 0 0.106-0.021 0.201-0.062 0.285s-0.101 0.155-0.179 0.213c-0.078 0.058-0.171 0.102-0.28 0.132s-0.229 0.045-0.363 0.045c-0.12 0-0.239-0.016-0.357-0.047-0.117-0.032-0.224-0.081-0.32-0.146-0.095-0.065-0.171-0.147-0.228-0.248s-0.085-0.219-0.085-0.357h0.504c0 0.076 0.012 0.14 0.035 0.192s0.056 0.095 0.099 0.127c0.044 0.032 0.095 0.056 0.154 0.070 0.060 0.015 0.126 0.022 0.198 0.022 0.087 0 0.158-0.012 0.214-0.037 0.057-0.025 0.099-0.059 0.126-0.102 0.028-0.044 0.042-0.093 0.042-0.147z"></path>
</symbol>
    <symbol id="icon-logo-customers-5" viewBox="0 0 59 32">
<path d="M15.31 25.356c0.14 0.156 0.215 0.352 0.211 0.553 0.007 0.131-0.018 0.262-0.075 0.383s-0.143 0.229-0.252 0.316c-0.273 0.185-0.61 0.276-0.951 0.255h-1.671v-3.504h1.637c0.323-0.019 0.644 0.063 0.907 0.233 0.106 0.080 0.19 0.18 0.245 0.294s0.080 0.238 0.073 0.361c0.010 0.193-0.058 0.383-0.19 0.536-0.127 0.139-0.303 0.236-0.498 0.274 0.222 0.036 0.422 0.143 0.565 0.3zM13.349 24.827h0.7c0.159 0.011 0.317-0.031 0.445-0.116 0.053-0.043 0.093-0.096 0.12-0.155s0.037-0.123 0.031-0.187c0.005-0.063-0.006-0.127-0.031-0.186s-0.066-0.113-0.117-0.156c-0.132-0.088-0.295-0.13-0.458-0.118h-0.688v0.919zM14.562 26.171c0.056-0.044 0.1-0.099 0.129-0.161s0.041-0.129 0.036-0.195c0.004-0.068-0.009-0.135-0.038-0.198s-0.074-0.118-0.131-0.162c-0.137-0.091-0.305-0.136-0.475-0.127h-0.734v0.964h0.743c0.167 0.009 0.333-0.034 0.47-0.122z"></path>
<path d="M18.656 26.862l-0.911-1.369h-0.342v1.369h-0.783v-3.504h1.483c0.374-0.023 0.744 0.083 1.032 0.298 0.207 0.19 0.332 0.441 0.353 0.707s-0.066 0.529-0.242 0.743c-0.183 0.189-0.433 0.314-0.707 0.356l0.97 1.4h-0.852zM17.403 25.015h0.641c0.445 0 0.668-0.177 0.668-0.531 0.005-0.072-0.008-0.145-0.036-0.212s-0.072-0.13-0.128-0.181c-0.141-0.105-0.322-0.156-0.504-0.142h-0.648l0.008 1.067z"></path>
<path d="M22.939 26.157h-1.561l-0.276 0.705h-0.821l1.434-3.465h0.888l1.428 3.465h-0.822l-0.27-0.705zM22.729 25.627l-0.57-1.479-0.57 1.479h1.141z"></path>
<path d="M28.299 26.863h-0.778l-1.744-2.383v2.383h-0.776v-3.504h0.776l1.744 2.397v-2.397h0.778v3.504z"></path>
<path d="M32.737 26.024c-0.161 0.265-0.406 0.48-0.704 0.618-0.339 0.154-0.714 0.23-1.093 0.221h-1.384v-3.504h1.384c0.378-0.009 0.754 0.065 1.093 0.216 0.298 0.135 0.543 0.348 0.704 0.611 0.16 0.285 0.243 0.6 0.243 0.919s-0.083 0.634-0.243 0.919zM31.847 25.94c0.222-0.233 0.344-0.529 0.344-0.836s-0.122-0.603-0.344-0.836c-0.268-0.211-0.618-0.318-0.974-0.298h-0.54v2.268h0.54c0.355 0.020 0.705-0.087 0.974-0.298z"></path>
<path d="M23.425 3.867c0 0 10.038 3.412 9.825 8.349v8.351c0 0-10.031-3.413-9.821-8.351l-0.004-8.349z"></path>
<path d="M42.194 18.611c1.896-1.175 4.089-1.902 6.378-2.116v-2.614c-2.638 0.915-4.875 2.575-6.378 4.73z"></path>
<path d="M41.055 19.399c1.552-2.813 4.242-4.983 7.517-6.065v-7.532c0 0-14.296 4.86-13.993 11.891v11.889c0 0 0.637-0.217 1.639-0.625 0-0.38 0-0.764 0.046-1.149 0.296-3.264 2.020-6.289 4.792-8.409z"></path>
<path d="M39.695 23.815c0.075-0.825 0.243-1.64 0.5-2.434-1.726 1.831-2.772 4.103-2.989 6.497-0.021 0.226-0.032 0.452-0.038 0.685 0.812-0.351 1.757-0.789 2.75-1.304-0.253-1.132-0.328-2.291-0.222-3.443z"></path>
<path d="M40.264 23.858c-0.095 1.042-0.036 2.090 0.177 3.117 3.906-2.104 8.294-5.355 8.125-9.284v-0.342c-2.791 0.281-5.401 1.379-7.431 3.126-0.475 1.082-0.769 2.222-0.871 3.383z"></path>
</symbol>
    <symbol id="icon-logo-customers-6" viewBox="0 0 59 32">
<path d="M30.588 15.682c-0.254-0.338-0.375-0.737-0.346-1.138v-1.65c0-0.506 0.115-0.89 0.344-1.153s0.624-0.394 1.183-0.393c0.525 0 0.898 0.112 1.119 0.336 0.24 0.286 0.358 0.635 0.331 0.987v0.388h-0.94v-0.393c0.003-0.129-0.006-0.257-0.027-0.384-0.014-0.087-0.061-0.168-0.134-0.228-0.096-0.066-0.218-0.097-0.34-0.089-0.129-0.008-0.256 0.025-0.358 0.094-0.082 0.067-0.136 0.156-0.156 0.252-0.027 0.135-0.039 0.271-0.037 0.408v2.003c-0.015 0.193 0.027 0.387 0.121 0.562 0.047 0.060 0.112 0.107 0.188 0.136s0.16 0.041 0.242 0.032c0.12 0.009 0.24-0.024 0.333-0.091 0.077-0.066 0.126-0.151 0.14-0.243 0.022-0.133 0.032-0.267 0.029-0.401v-0.406h0.94v0.371c0.026 0.367-0.088 0.732-0.325 1.038-0.216 0.245-0.584 0.368-1.125 0.368s-0.949-0.131-1.181-0.403z"></path>
<path d="M34.501 15.699c-0.237-0.257-0.356-0.631-0.356-1.127v-1.736c0-0.49 0.119-0.861 0.356-1.113s0.634-0.377 1.191-0.376c0.553 0 0.947 0.125 1.185 0.376 0.237 0.252 0.358 0.623 0.358 1.113v1.736c0 0.49-0.121 0.866-0.362 1.125s-0.634 0.388-1.181 0.388-0.951-0.131-1.191-0.386zM36.129 15.282c0.085-0.161 0.124-0.337 0.113-0.514v-2.125c0.011-0.173-0.027-0.346-0.111-0.504-0.048-0.061-0.114-0.109-0.192-0.138s-0.164-0.040-0.248-0.030c-0.084-0.010-0.17 0-0.248 0.030s-0.145 0.077-0.193 0.138c-0.086 0.157-0.124 0.33-0.113 0.504v2.136c-0.012 0.177 0.027 0.353 0.113 0.514 0.055 0.054 0.122 0.098 0.198 0.127s0.158 0.045 0.242 0.045 0.166-0.015 0.242-0.045c0.076-0.030 0.143-0.073 0.198-0.127v-0.010z"></path>
<path d="M38.364 11.398h1.012l0.761 3.203 0.778-3.203h0.984l0.099 4.623h-0.728l-0.078-3.213-0.751 3.213h-0.584l-0.778-3.225-0.072 3.225h-0.735l0.091-4.623z"></path>
<path d="M43.133 11.398h1.576c0.908 0 1.362 0.438 1.362 1.313 0 0.838-0.478 1.257-1.434 1.256h-0.537v2.055h-0.973l0.006-4.623zM44.479 13.374c0.096 0.011 0.194 0.003 0.286-0.022s0.177-0.067 0.249-0.124c0.112-0.156 0.161-0.339 0.14-0.522 0.005-0.141-0.011-0.282-0.047-0.42-0.014-0.046-0.038-0.089-0.072-0.127s-0.075-0.069-0.123-0.093c-0.135-0.056-0.284-0.081-0.434-0.074h-0.377v1.382h0.377z"></path>
<path d="M47.474 11.398h1.045l1.072 4.623h-0.907l-0.212-1.066h-0.932l-0.218 1.066h-0.92l1.072-4.623zM48.367 14.419l-0.364-1.941-0.364 1.941h0.728z"></path>
<path d="M50.456 11.398h0.681l1.304 2.637v-2.637h0.807v4.623h-0.648l-1.311-2.753v2.753h-0.835l0.002-4.623z"></path>
<path d="M55.139 14.258l-1.084-2.854h0.912l0.661 1.833 0.621-1.833h0.893l-1.070 2.854v1.763h-0.934v-1.763z"></path>
<path d="M32.090 18.042v0.242h-0.794v1.879h-0.333v-1.879h-0.798v-0.242h1.924z"></path>
<path d="M34.578 20.163h-0.257c-0.026 0.001-0.052-0.006-0.072-0.020-0.019-0.012-0.034-0.029-0.043-0.049l-0.23-0.504h-1.101l-0.23 0.504c-0.007 0.021-0.019 0.041-0.035 0.057-0.020 0.014-0.046 0.021-0.072 0.020h-0.257l0.973-2.12h0.339l0.984 2.112zM32.968 19.375h0.918l-0.389-0.863c-0.029-0.065-0.053-0.132-0.072-0.2-0.014 0.040-0.025 0.079-0.037 0.113l-0.035 0.089-0.385 0.861z"></path>
<path d="M36.256 19.954c0.061 0.003 0.122 0.003 0.183 0 0.053-0.005 0.105-0.013 0.156-0.025 0.048-0.010 0.094-0.023 0.14-0.039 0.043-0.015 0.086-0.034 0.13-0.052v-0.477h-0.389c-0.010 0-0.019-0.001-0.028-0.004s-0.017-0.007-0.024-0.013c-0.006-0.005-0.011-0.011-0.015-0.017s-0.005-0.014-0.005-0.021v-0.163h0.755v0.813c-0.062 0.038-0.127 0.072-0.195 0.101-0.069 0.030-0.142 0.054-0.216 0.072-0.080 0.020-0.161 0.035-0.243 0.044-0.094 0.009-0.189 0.014-0.284 0.013-0.168 0.001-0.334-0.026-0.49-0.079-0.146-0.050-0.278-0.126-0.389-0.222-0.108-0.097-0.194-0.211-0.251-0.336-0.061-0.141-0.092-0.29-0.090-0.44-0.002-0.151 0.028-0.301 0.088-0.443 0.056-0.126 0.141-0.24 0.251-0.336 0.111-0.095 0.243-0.17 0.389-0.22 0.167-0.054 0.343-0.081 0.521-0.079 0.091-0 0.181 0.006 0.27 0.018 0.079 0.011 0.157 0.029 0.231 0.054 0.068 0.022 0.133 0.050 0.195 0.084 0.060 0.033 0.116 0.070 0.169 0.111l-0.093 0.131c-0.007 0.012-0.018 0.022-0.032 0.029s-0.029 0.011-0.044 0.011c-0.022-0.001-0.042-0.006-0.060-0.017-0.029-0.013-0.060-0.030-0.095-0.050-0.041-0.022-0.085-0.041-0.13-0.057-0.058-0.020-0.118-0.036-0.179-0.047-0.081-0.013-0.164-0.019-0.247-0.018-0.128-0.001-0.256 0.019-0.376 0.059-0.108 0.038-0.206 0.095-0.286 0.168-0.081 0.076-0.142 0.166-0.181 0.264-0.087 0.23-0.087 0.477 0 0.707 0.043 0.1 0.109 0.191 0.195 0.267 0.080 0.073 0.177 0.13 0.284 0.168 0.124 0.037 0.255 0.051 0.385 0.042z"></path>
<path d="M39.357 19.921h1.062v0.242h-1.387v-2.12h0.333l-0.008 1.879z"></path>
<path d="M41.524 20.162h-0.333v-2.12h0.333v2.12z"></path>
<path d="M42.761 18.052c0.020 0.010 0.037 0.023 0.051 0.039l1.422 1.598c-0.002-0.025-0.002-0.050 0-0.076 0-0.023 0-0.047 0-0.069v-1.511h0.29v2.129h-0.167c-0.025 0.002-0.050-0.002-0.072-0.012-0.020-0.011-0.038-0.024-0.053-0.040l-1.42-1.597c0 0.025 0 0.049 0 0.072s0 0.045 0 0.066v1.511h-0.278v-2.12h0.173c0.019 0 0.037 0.003 0.054 0.010z"></path>
<path d="M46.974 18.042v0.233h-1.179v0.7h0.955v0.225h-0.955v0.724h1.179v0.233h-1.521v-2.115h1.521z"></path>
<path d="M12.112 4.948l14.772 3.619v12.683l-14.772-3.618v-12.685zM11.164 3.867v14.382l16.666 4.084v-14.38l-16.666-4.086z"></path>
<path d="M20.096 29.010l-16.667-4.088v-14.381l16.667 4.086v14.382z"></path>
<path d="M11.44 4.785l14.58 3.574-6.2 5.352-14.582-3.576 6.202-5.35zM11.164 3.867l-7.735 6.675 16.667 4.086 7.733-6.675-16.666-4.086z"></path>
<path d="M21.034 28.201l6.796-5.866-6.796-1.667v7.532z"></path>
</symbol>
    <symbol id="icon-twitter" viewBox="0 0 32 32">
      <path d="M32 6.078c-1.19.522-2.458.868-3.78 1.036a6.523 6.523 0 0 0 2.886-3.626 13.11 13.11 0 0 1-4.16 1.588A6.574 6.574 0 0 0 22.154 3c-3.632 0-6.556 2.948-6.556 6.562 0 .52.044 1.02.152 1.496-5.454-.266-10.28-2.88-13.522-6.862a6.605 6.605 0 0 0-.898 3.316 6.57 6.57 0 0 0 2.914 5.452 6.479 6.479 0 0 1-2.964-.808v.072c0 3.188 2.274 5.836 5.256 6.446a6.548 6.548 0 0 1-1.72.216 5.8 5.8 0 0 1-1.242-.112c.85 2.598 3.262 4.508 6.13 4.57a13.182 13.182 0 0 1-8.134 2.798c-.538 0-1.054-.024-1.57-.09A18.469 18.469 0 0 0 10.064 29c12.072 0 18.672-10 18.672-18.668 0-.29-.01-.57-.024-.848A13.087 13.087 0 0 0 32 6.078z"/>
    </symbol>
    <symbol id="icon-antenna-1" viewBox="0 0 32 32">
      <path fill="#2e2f42" d="m30.773 22.098-8.443-8.505.937-4.615c.242.094.499.144.758.146h.006a2.159 2.159 0 1 0-2.008-1.435l-4.96.605L8.972.161a.534.534 0 0 0-.377-.16.532.532 0 0 0-.373.155L6.709 1.66a.534.534 0 0 0 0 .754l.814.826a14.943 14.943 0 0 0 2.519 17.663.513.513 0 0 0 .146.098c-.034.18-.051.364-.052.547v6.187h-6.4a2.67 2.67 0 0 0-2.667 2.667v1.067c0 .295.239.533.533.533h24.533a.533.533 0 0 0 .533-.533v-1.067a2.67 2.67 0 0 0-2.667-2.667h-6.4v-2.742a15.09 15.09 0 0 0 3.049.32 14.854 14.854 0 0 0 7.04-1.783l.818.823a.534.534 0 0 0 .377.16.532.532 0 0 0 .373-.155l1.513-1.504a.534.534 0 0 0 0-.754zM23.28 6.233a1.067 1.067 0 1 1 .753 1.822h-.003a1.067 1.067 0 0 1-.747-1.823h-.002zm-1.256 3.505-.598 2.946-1.175-1.182 1.774-1.763zm-.605-.902-1.92 1.909-1.485-1.493 3.405-.415zM24.004 28.8a1.6 1.6 0 0 1 1.6 1.6v.533H2.137V30.4a1.6 1.6 0 0 1 1.6-1.6h20.267zm-7.467-2.133v1.067h-5.333v-1.067h5.333zM11.204 25.6v-4.053c0-1.294 1.196-2.347 2.667-2.347s2.667 1.053 2.667 2.347V25.6h-5.333zm6.4-1.696v-2.357c0-1.882-1.675-3.413-3.733-3.413a3.8 3.8 0 0 0-3.281 1.786A13.87 13.87 0 0 1 8.311 4.033l18.602 18.708a13.818 13.818 0 0 1-9.309 1.163zm11.289-.684L7.836 2.039l.755-.752 7.935 7.98c.004 0 .006.007.01.01l13.115 13.191-.757.752z" style="fill:var(--color1, #2e2f42)"/>
      <path fill="#4d5ae5" d="M13.876 20.267h-.005a1.6 1.6 0 1 0-.004 3.2h.005a1.6 1.6 0 1 0 .004-3.2zm.373 1.978a.534.534 0 0 1-.752-.756.534.534 0 0 1 .373-.155.534.534 0 0 1 .374.911h.005z" style="fill:var(--color2, #4d5ae5)"/>
    </symbol>
    <symbol id="icon-clock-1" viewBox="0 0 32 32">
      <path d="M31.297 15.301C31.295 6.849 24.442-.002 15.989 0S.686 6.855.688 15.308a15.304 15.304 0 0 0 10.649 14.576.662.662 0 0 0 .529-.065.637.637 0 0 0 .283-.356l3.865-12.25a1.912 1.912 0 1 0-.84-3.635l-5.106-5.107a.637.637 0 0 0-.902.902l5.103 5.109a1.876 1.876 0 0 0 .536 2.309l-3.683 11.673C3.844 25.783.118 17.71 2.799 10.432S13.553-.572 20.831 2.109c7.278 2.681 11.004 10.754 8.323 18.032a14.042 14.042 0 0 1-7.462 7.973l-.398-1.874a.637.637 0 0 0-1.049-.344l-3.837 3.426a.637.637 0 0 0 .231 1.084l4.899 1.564a.638.638 0 0 0 .819-.74l-.391-1.839a15.255 15.255 0 0 0 9.329-14.089zm-15.305-.637a.638.638 0 1 1 0 1.277.638.638 0 0 1 0-1.277zm2.101 14.864 2.184-1.948.603 2.84-2.787-.892z"/>
      <path d="M15.354 3.185V4.46a.638.638 0 1 0 1.276 0V3.185a.638.638 0 0 0-1.276 0zM3.876 14.664a.638.638 0 0 0 0 1.276h1.275a.638.638 0 1 0 0-1.276H3.876zM28.108 15.939a.638.638 0 1 0 0-1.276h-1.275a.638.638 0 0 0 0 1.276h1.275z"/>
    </symbol>
    <symbol id="icon-diagram-1" viewBox="0 0 32 32">
      <path d="M14.925 14.965h1.066v4.798h-1.066v-4.797zM19.19 17.097h1.066v2.665H19.19v-2.665zM10.661 18.696h1.066v1.066h-1.066v-1.066zM7.463 18.163h1.066v1.599H7.463v-1.599z"/>
      <path d="M1.599 28.291h25.587a1.6 1.6 0 0 0 1.599-1.599V24.56a1.6 1.6 0 0 0-1.599-1.599h-.533V9.668L29.681 6.8a1.608 1.608 0 1 0-.746-.763L26.654 8.2V6.97a1.6 1.6 0 0 0-1.599-1.599H3.733A1.6 1.6 0 0 0 2.134 6.97v15.992h-.533a1.6 1.6 0 0 0-1.599 1.599v2.132a1.6 1.6 0 0 0 1.599 1.599zM30.384 4.837a.533.533 0 1 1 0 1.067.533.533 0 0 1 0-1.067zM3.198 6.969c0-.294.239-.533.533-.533h21.322c.294 0 .533.239.533.533v2.239l-1.066 1.013V8.035a.533.533 0 0 0-.533-.533H4.797a.533.533 0 0 0-.533.533v13.326c0 .294.239.533.533.533h19.19a.533.533 0 0 0 .533-.533v-9.674l1.066-1.01v12.284H3.198V6.969zm4.798 6.93a1.598 1.598 0 1 0 1.107 2.749l1.853.93a.532.532 0 0 0 .636-.123l3.939-4.431 3.872 2.901a.533.533 0 0 0 .686-.039l3.365-3.188v8.131H5.33V8.569h18.124v2.66l-3.771 3.572-3.904-2.927a.533.533 0 0 0-.718.072l-3.993 4.493-1.493-.746c.011-.064.018-.129.02-.193a1.6 1.6 0 0 0-1.599-1.599zm.533 1.599a.533.533 0 1 1-1.067 0 .533.533 0 0 1 1.067 0zm3.198 8.529h5.331v.533a.533.533 0 0 1-.533.533h-4.264a.533.533 0 0 1-.533-.533v-.533zm-10.661.533c0-.294.239-.533.533-.533h9.062v.533a1.6 1.6 0 0 0 1.599 1.599h4.264a1.6 1.6 0 0 0 1.599-1.599v-.533h9.062c.294 0 .533.239.533.533v2.132a.533.533 0 0 1-.533.533H1.598a.533.533 0 0 1-.533-.533V24.56z"/>
    </symbol>
    <symbol id="icon-facebook-1" viewBox="0 0 32 32">
      <path d="M21.329 5.313h2.921V.225C23.746.156 22.013 0 19.994 0c-4.212 0-7.097 2.649-7.097 7.519V12H8.249v5.688h4.648V32h5.699V17.689h4.46l.708-5.688h-5.169V8.082c.001-1.644.444-2.769 2.735-2.769z"/>
    </symbol>
    <symbol id="icon-group-1" viewBox="0 0 28 32">
      <path fill="#8e8f99" d="m4.085 0 4.771 4.546L0 4.541v22.054h23.149v-8.432l4.766 4.541V.001H4.085zm18.854 17.629L9.411 4.74h13.528v12.889zm-4.2 5.74H3.663V8.536h1.066v13.828h14.01v1.004zM6.67 30.68l-.562-1.155h-.464l.814 1.529v.891h.421v-.891l.814-1.529h-.462l-.562 1.155zm2.071-1.155h.1l.914 2.42h-.439l-.196-.567h-.937l-.195.567h-.437l.911-2.42h.279zm-.444 1.522h.709l-.355-1.027-.354 1.027zm2.925-.401-.053-.068a1.266 1.266 0 0 1-.145-.238.647.647 0 0 1 .026-.565.519.519 0 0 1 .221-.209.71.71 0 0 1 .334-.075c.123 0 .229.025.317.075.09.049.158.114.206.194.049.081.073.17.073.266 0 .076-.014.146-.042.209s-.066.121-.115.173a1.188 1.188 0 0 1-.17.148l-.168.122.479.566a.966.966 0 0 0 .105-.452h.346c0 .117-.012.229-.035.334a1.039 1.039 0 0 1-.177.4l.355.418h-.464l-.141-.165a.952.952 0 0 1-.248.136 1.107 1.107 0 0 1-.376.063c-.161 0-.3-.029-.417-.088s-.208-.14-.273-.243a.665.665 0 0 1-.095-.354c0-.099.021-.185.061-.259a.797.797 0 0 1 .168-.209c.066-.059.14-.119.224-.178zm.198.243-.05.036a.61.61 0 0 0-.131.138.394.394 0 0 0-.023.409.344.344 0 0 0 .135.138c.06.033.132.05.218.05a.62.62 0 0 0 .391-.137l-.539-.633zm.096-.442.148-.1a.552.552 0 0 0 .15-.136.3.3 0 0 0 .045-.17.241.241 0 0 0-.255-.233.246.246 0 0 0-.231.143.338.338 0 0 0-.028.141c0 .05.013.101.038.155a.994.994 0 0 0 .133.2zm4.234.71h-.416a.776.776 0 0 1-.076.268.383.383 0 0 1-.168.165.626.626 0 0 1-.288.056c-.098 0-.181-.019-.251-.058s-.127-.094-.173-.165a.822.822 0 0 1-.1-.254 1.62 1.62 0 0 1-.032-.332v-.204c0-.129.012-.243.035-.342.024-.101.06-.186.108-.254s.107-.121.178-.156a.557.557 0 0 1 .249-.053c.116 0 .211.02.283.06a.378.378 0 0 1 .163.17.756.756 0 0 1 .073.268h.416a1.046 1.046 0 0 0-.136-.43c-.073-.125-.176-.223-.309-.294s-.296-.106-.489-.106c-.152 0-.289.027-.411.08a.862.862 0 0 0-.311.231c-.086.1-.153.22-.2.361a1.546 1.546 0 0 0-.068.472v.201c0 .174.022.331.067.472.045.141.111.261.196.361a.878.878 0 0 0 .307.229c.12.053.254.08.404.08.195 0 .361-.035.497-.106s.242-.168.317-.291a.958.958 0 0 0 .133-.424zm2.309-.356v-.133c0-.183-.024-.346-.073-.49a1.08 1.08 0 0 0-.204-.371.868.868 0 0 0-.317-.234 1.005 1.005 0 0 0-.409-.081c-.148 0-.284.027-.407.081a.876.876 0 0 0-.317.234 1.084 1.084 0 0 0-.206.371 1.52 1.52 0 0 0-.073.49v.133c0 .183.024.347.073.492.05.145.12.269.209.371s.196.18.317.234c.123.053.259.08.407.08.15 0 .286-.027.409-.08a.879.879 0 0 0 .316-.234c.089-.102.157-.226.204-.371s.072-.309.072-.492zm-.417-.136v.136c0 .135-.013.255-.04.359a.777.777 0 0 1-.113.264.493.493 0 0 1-.431.214.556.556 0 0 1-.246-.053.527.527 0 0 1-.186-.161c-.051-.072-.09-.16-.116-.264s-.04-.224-.04-.359v-.136c0-.135.013-.254.04-.357a.784.784 0 0 1 .115-.261.5.5 0 0 1 .43-.215c.092 0 .175.018.248.055a.47.47 0 0 1 .184.16c.051.07.089.157.115.261.027.103.04.222.04.357z" style="fill:var(--color4, #8e8f99)"/>
    </symbol>
    <symbol id="icon-group-2" viewBox="0 0 25 32">
      <path fill="#8e8f99" d="M10.531 1.806h-.084a9.985 9.985 0 0 0-.388-.014h-.28c-.244 0-.494.006-.741.019a.523.523 0 0 0-.056 0 17.4 17.4 0 0 0-6.471 1.651l-.266.128v13.625l.623-.211a23.32 23.32 0 0 1 1.731-.513 21.155 21.155 0 0 1 4.982-.662v1.79a15.56 15.56 0 0 0-.655.019h-.051a19.948 19.948 0 0 0-3.833.588c-1.59.398-3.124.996-4.566 1.779V2.53A18.3 18.3 0 0 1 5.266.582 18.343 18.343 0 0 1 9.781 0h.263c.314.008.621.022.909.044.759.053 1.511.173 2.249.358v1.762a13.947 13.947 0 0 0-2.179-.329l-.045-.004c-.152-.013-.304-.026-.446-.026zm3.102 1.801c.391.03.796.044 1.205.044a19.352 19.352 0 0 0 4.747-.609c1.589-.4 3.123-.998 4.564-1.781v17.163a18.313 18.313 0 0 1-4.792 1.948 18.486 18.486 0 0 1-4.515.581 13.778 13.778 0 0 1-3.425-.404V3.274c.265.061.537.117.814.164.455.077.934.133 1.401.167zm8.734.133-.623.21c-.573.192-1.15.365-1.731.518a21.098 21.098 0 0 1-5.173.663c-.406 0-.78-.011-1.141-.034l-.497-.033v14.017l.427.038c.395.034.803.052 1.214.052a16.573 16.573 0 0 0 4.074-.527 17.107 17.107 0 0 0 3.184-1.144l.266-.128V3.742zM1.684 25.977a.912.912 0 0 0-.693-.28 1.034 1.034 0 0 0-.4.075.91.91 0 0 0-.512.518 1.023 1.023 0 0 0-.072.387v2.335c-.006.165.026.328.092.479.055.12.135.226.233.313a.815.815 0 0 0 .321.166c.114.032.231.048.349.049a.972.972 0 0 0 .892-.61.951.951 0 0 0 .075-.372v-.261h-.61v.208a.528.528 0 0 1-.036.208.359.359 0 0 1-.089.131.365.365 0 0 1-.128.067.425.425 0 0 1-.128.022.314.314 0 0 1-.286-.125.548.548 0 0 1-.081-.313v-2.177a.738.738 0 0 1 .075-.349.31.31 0 0 1 .299-.141.33.33 0 0 1 .272.131c.068.09.104.2.101.313v.202h.604v-.238a1.093 1.093 0 0 0-.279-.737zM5.31 25.95a1.051 1.051 0 0 0-1.38 0 .961.961 0 0 0-.237.327 1.099 1.099 0 0 0-.089.452v2.239a1.08 1.08 0 0 0 .089.459c.055.12.136.227.237.313a.94.94 0 0 0 .322.197 1.028 1.028 0 0 0 .728 0c.121-.044.233-.111.33-.197a.948.948 0 0 0 .23-.313 1.08 1.08 0 0 0 .089-.459v-2.239a1.08 1.08 0 0 0-.089-.452 1.015 1.015 0 0 0-.23-.327zm-.285 3.019a.405.405 0 0 1-.121.324.445.445 0 0 1-.574 0 .397.397 0 0 1-.121-.324V26.73a.405.405 0 0 1 .121-.324.445.445 0 0 1 .574 0 .397.397 0 0 1 .121.324v2.239zM10.072 29.969V25.73h-.587l-.771 2.244h-.011l-.777-2.244h-.581v4.239h.606V27.39h.011l.593 1.823h.302l.598-1.823h.011v2.579h.606zM13.513 26.027a.84.84 0 0 0-.343-.232 1.363 1.363 0 0 0-.439-.066h-.9v4.239h.604v-1.656h.311c.188.009.376-.031.545-.116a.882.882 0 0 0 .332-.324 1.02 1.02 0 0 0 .139-.369c.024-.16.035-.321.033-.482a2.421 2.421 0 0 0-.059-.606.898.898 0 0 0-.223-.39zm-.312 1.292a.547.547 0 0 1-.056.221.346.346 0 0 1-.156.149.619.619 0 0 1-.285.053h-.275v-1.441h.311a.578.578 0 0 1 .272.053.349.349 0 0 1 .142.157.62.62 0 0 1 .053.236v.282c0 .099.006.2 0 .291h-.006zM16.374 25.73h-.495l-.934 4.239h.604l.177-.911h.823l.177.911h.604l-.957-4.239zm-.557 2.751.297-1.537h.011l.296 1.537h-.604zM20.277 28.284h-.011l-.912-2.554h-.581v4.239h.604V27.42h.012l.923 2.549h.568V25.73h-.604v2.554zM23.968 25.73l-.486 1.685h-.012l-.486-1.685h-.64l.83 2.447v1.792h.604v-1.792l.83-2.447h-.64zM0 31.166h.291v.817h.198v-.817h.29v-.167H.001v.167zM2.447 30.998l-.381.984h.21l.081-.224h.392l.084.224h.215l-.391-.984h-.21zm-.031.595.134-.365.134.365h-.268zM4.866 31.62h.227v.127a.382.382 0 0 1-.234.083.244.244 0 0 1-.209-.093.411.411 0 0 1-.073-.257c0-.219.095-.329.283-.329a.206.206 0 0 1 .222.157l.195-.038c-.042-.192-.181-.289-.417-.289a.495.495 0 0 0-.344.127.494.494 0 0 0-.141.379.532.532 0 0 0 .126.369.477.477 0 0 0 .374.144.59.59 0 0 0 .417-.157v-.388h-.427v.166zM7.337 30.998h-.199v.984h.69v-.167h-.49v-.817zM9.426 30.998h-.199v.984h.199v-.984zM11.469 31.656l-.403-.657h-.193v.984h.185v-.643l.395.643h.198v-.984h-.182v.657zM13.315 31.549h.49v-.167h-.49v-.216h.528v-.167h-.727v.984h.747v-.167h-.548v-.266zM17.792 31.387h-.388v-.388h-.198v.984h.198v-.43h.388v.43h.198v-.984h-.198v.388zM19.649 31.549h.492v-.167h-.492v-.216h.529v-.167h-.727v.984h.746v-.167h-.548v-.266zM22.168 31.549c.171-.027.258-.117.258-.274a.236.236 0 0 0-.096-.219.553.553 0 0 0-.288-.058h-.417v.984h.198v-.412h.039a.261.261 0 0 1 .123.022.21.21 0 0 1 .07.072l.215.313h.237l-.12-.192a.685.685 0 0 0-.218-.236zm-.199-.136h-.146v-.247h.156a.526.526 0 0 1 .201.023c.014.013.026.029.033.046a.133.133 0 0 1-.005.111.128.128 0 0 1-.037.043.547.547 0 0 1-.201.023zM24.067 31.549h.49v-.167h-.49v-.216h.529v-.167h-.729v.984h.747v-.167h-.548v-.266z" style="fill:var(--color4, #8e8f99)"/>
    </symbol>
    <symbol id="icon-group-3" viewBox="0 0 34 32">
      <path fill="#8e8f99" d="M5.315 31.394c.013 0 .025.003.036.007s.022.011.03.019l.172.162a1.413 1.413 0 0 1-.485.307 1.897 1.897 0 0 1-.687.11 1.853 1.853 0 0 1-.646-.103 1.414 1.414 0 0 1-.487-.291 1.3 1.3 0 0 1-.315-.449 1.49 1.49 0 0 1-.11-.576 1.338 1.338 0 0 1 .453-1.027c.147-.127.323-.226.517-.293a2.07 2.07 0 0 1 .666-.103c.211-.004.422.028.618.094.171.063.327.151.463.26l-.144.173a.125.125 0 0 1-.037.031.098.098 0 0 1-.058.013.144.144 0 0 1-.062-.018l-.078-.046-.108-.059a1.198 1.198 0 0 0-.34-.103 1.567 1.567 0 0 0-.256-.018 1.421 1.421 0 0 0-.478.077 1.109 1.109 0 0 0-.375.217 1 1 0 0 0-.243.346 1.13 1.13 0 0 0-.088.457c-.003.158.027.315.088.464.053.127.134.244.239.344.099.093.221.166.358.214.141.05.292.075.444.074.088.001.176-.004.263-.015a1.068 1.068 0 0 0 .569-.237.13.13 0 0 1 .082-.029zM10.292 30.58c.003.195-.037.389-.116.573-.07.166-.181.318-.325.445s-.317.226-.509.292a2.14 2.14 0 0 1-1.31 0 1.514 1.514 0 0 1-.506-.293 1.291 1.291 0 0 1-.327-.449 1.473 1.473 0 0 1 0-1.147c.074-.167.185-.32.327-.451.144-.123.317-.218.506-.282.421-.14.889-.14 1.31 0 .191.066.365.166.508.293a1.316 1.316 0 0 1 .441 1.02zm-.453 0a1.196 1.196 0 0 0-.082-.46.941.941 0 0 0-.231-.344 1.012 1.012 0 0 0-.364-.217 1.533 1.533 0 0 0-.952 0 1.026 1.026 0 0 0-.364.217.926.926 0 0 0-.233.344c-.11.3-.11.621 0 .92a.939.939 0 0 0 .233.344c.101.094.225.168.364.215.307.098.645.098.952 0 .139-.048.263-.121.364-.215a.967.967 0 0 0 .231-.344c.058-.148.085-.304.082-.46zM13.687 31.062l.045.103c.017-.037.032-.07.05-.103a.833.833 0 0 1 .056-.101l1.101-1.71c.022-.029.041-.048.063-.053a.273.273 0 0 1 .09-.009h.325v2.781h-.386v-2.132a.769.769 0 0 1 0-.096l-1.107 1.734c-.014.026-.037.048-.065.063s-.061.023-.095.023h-.062c-.034 0-.066-.008-.095-.023s-.051-.037-.065-.064l-1.14-1.745V31.962h-.373v-2.776h.325a.336.336 0 0 1 .09.009c.027.011.048.03.06.053l1.125 1.712a.61.61 0 0 1 .056.099zM17.83 30.924v1.042h-.431v-2.777h.961c.181-.003.362.017.536.061.139.034.269.093.379.173a.718.718 0 0 1 .215.272.814.814 0 0 1 .073.355.774.774 0 0 1-.313.633c-.111.084-.24.146-.381.184a1.847 1.847 0 0 1-.519.064l-.521-.007zm0-.298h.521c.113.001.226-.013.334-.042a.727.727 0 0 0 .241-.12.532.532 0 0 0 .198-.418c.005-.077-.01-.154-.043-.226s-.085-.137-.151-.19a.935.935 0 0 0-.579-.149h-.521v1.145zM23.621 31.97h-.34a.164.164 0 0 1-.095-.026.171.171 0 0 1-.056-.064l-.293-.672h-1.471l-.304.672a.162.162 0 0 1-.151.091h-.34l1.293-2.782h.448l1.31 2.782zm-2.133-1.033h1.215l-.513-1.132a1.783 1.783 0 0 1-.097-.261l-.05.145a1.317 1.317 0 0 1-.047.118l-.509 1.13zM25.483 29.201a.18.18 0 0 1 .065.05l1.885 2.097v-2.16h.386v2.782h-.215a.2.2 0 0 1-.088-.017.224.224 0 0 1-.069-.052l-1.883-2.095a.769.769 0 0 1 0 .096v2.068h-.386v-2.782h.228a.206.206 0 0 1 .078.013zM30.993 30.863v1.104h-.431v-1.104l-1.191-1.675h.386a.158.158 0 0 1 .093.024.248.248 0 0 1 .058.063l.745 1.081c.03.046.056.088.078.129s.039.079.054.118l.056-.12a.947.947 0 0 1 .073-.127l.735-1.088a.26.26 0 0 1 .056-.059.15.15 0 0 1 .093-.028h.39l-1.194 1.683zM13.474 24.521c.187.02.377.037.569.052 2.907-1.111 5.366-2.93 7.07-5.228s2.577-4.975 2.511-7.696L20.42 8.912c.651 2.896.347 5.89-.88 8.647s-3.327 5.167-6.066 6.962z" style="fill:var(--color4, #8e8f99)"/>
      <path fill="#8e8f99" d="m12.33 24.393.086.015c2.927-1.789 5.158-4.286 6.406-7.17s1.454-6.021.592-9.006l-4.563-3.899c1.846 3.205 2.589 6.791 2.142 10.342s-2.063 6.921-4.663 9.718zM27.805 14.862c-.775 2.989-2.658 5.685-5.369 7.687a17.175 17.175 0 0 1-2.551 1.565c2.207-.554 4.236-1.534 5.93-2.865s3.008-2.975 3.84-4.808l-1.851-1.579z" style="fill:var(--color4, #8e8f99)"/>
      <path fill="#8e8f99" d="m27.079 14.422-2.635-2.251c-.05 2.567-.904 5.075-2.473 7.264s-3.795 3.98-6.448 5.185h.013c.591 0 1.182-.03 1.769-.09 2.479-.865 4.669-2.24 6.375-4.004s2.874-3.861 3.4-6.104zM12.711 2.689 9.568 0c-2.81.928-5.227 2.559-6.934 4.679S.009 9.311 0 11.885c.011 2.844 1.131 5.604 3.184 7.843s4.921 3.829 8.151 4.518c2.883-3.001 4.571-6.709 4.818-10.586s-.958-7.72-3.442-10.971zM34.341 14.008c-.011-3.374-1.585-6.608-4.378-8.994s-6.577-3.731-10.526-3.74a16.975 16.975 0 0 0-5.337.849l19.245 16.443c.659-1.454.997-2.999.995-4.558z" style="fill:var(--color4, #8e8f99)"/>
    </symbol>
    <symbol id="icon-group-4" viewBox="0 0 66 32">
      <path fill="#8e8f99" d="M10.207 9.77h-.002c-1.862 0-3.371 1.361-3.371 3.04v.002c0 1.679 1.509 3.04 3.371 3.04h.002c1.862 0 3.371-1.361 3.371-3.04v-.002c0-1.679-1.509-3.04-3.371-3.04zM35.092 8.798c-.005-2.332-1.035-4.567-2.863-6.215S27.922.005 25.336 0c-2.587.004-5.066.932-6.896 2.582s-2.86 3.884-2.865 6.217v12.858s19.515-1.96 19.517-12.856v-.002zM0 25.877c.005 1.622.721 3.177 1.994 4.325s2.996 1.794 4.796 1.799c1.799-.005 3.523-.651 4.795-1.798s1.989-2.701 1.994-4.323v-8.947S0 18.298 0 25.878zm6.789 1.603c-.352 0-.695-.094-.988-.27s-.52-.426-.655-.719-.17-.615-.101-.926c.069-.311.238-.597.487-.821s.565-.377.91-.439c.345-.062.702-.03 1.027.091s.603.327.798.59c.195.264.3.573.3.891.001.211-.044.42-.133.615s-.22.373-.385.522c-.165.149-.362.268-.578.349s-.448.123-.682.123v-.006zM19.207 24.597v3.329h-.686v-3.329h.686zm1.326 1.422v.535h-1.514v-.535h1.514zm.16-1.422v.537h-1.674v-.537h1.674zm3.133 1.587v.158c0 .253-.034.48-.103.681s-.165.373-.29.515a1.25 1.25 0 0 1-.448.322 1.423 1.423 0 0 1-.574.112c-.209 0-.4-.037-.574-.112a1.29 1.29 0 0 1-.448-.322 1.5 1.5 0 0 1-.295-.514 2.09 2.09 0 0 1-.103-.681v-.158c0-.255.034-.482.103-.681.069-.201.165-.373.29-.514.127-.142.276-.25.448-.325.174-.075.365-.112.574-.112.21 0 .402.037.574.112.174.075.323.183.448.325.127.142.224.313.293.514.07.2.105.427.105.681zm-.693.158v-.162c0-.177-.016-.332-.048-.466s-.079-.247-.142-.338a.623.623 0 0 0-.538-.277.614.614 0 0 0-.535.277c-.061.091-.107.204-.139.338s-.048.29-.048.466v.162c0 .175.016.331.048.466.032.134.079.248.142.341.063.091.139.161.229.208s.193.071.309.071c.116 0 .219-.024.309-.071s.165-.117.226-.208c.061-.093.107-.207.139-.341.032-.136.048-.291.048-.466zm2.92.713a.447.447 0 0 0-.027-.16.308.308 0 0 0-.096-.133c-.047-.041-.114-.082-.199-.121s-.196-.081-.332-.123a4.267 4.267 0 0 1-.43-.165 1.775 1.775 0 0 1-.357-.213.952.952 0 0 1-.242-.286.786.786 0 0 1-.087-.377.79.79 0 0 1 .091-.377.872.872 0 0 1 .256-.293c.11-.082.239-.146.389-.19.151-.044.316-.066.496-.066.245 0 .46.044.642.133s.325.21.425.364c.102.154.153.33.153.528h-.681a.513.513 0 0 0-.062-.256.421.421 0 0 0-.183-.176.648.648 0 0 0-.306-.064.7.7 0 0 0-.297.055.393.393 0 0 0-.178.144.351.351 0 0 0-.059.201c0 .056.014.107.041.153.029.046.072.088.128.128s.126.077.208.112c.082.035.178.069.286.103.181.055.341.117.478.185.139.069.255.146.348.231a.851.851 0 0 1 .281.658c0 .145-.028.274-.085.389s-.138.211-.245.29c-.107.079-.234.139-.382.181s-.313.062-.496.062c-.165 0-.327-.021-.487-.064a1.486 1.486 0 0 1-.437-.199c-.13-.088-.233-.201-.311-.338s-.117-.3-.117-.487h.688c0 .104.016.191.048.263s.077.13.135.174c.059.044.13.076.21.096.082.02.172.03.27.03a.745.745 0 0 0 .293-.05.356.356 0 0 0 .228-.341zm2.641-2.458v3.329h-.684v-3.329h.684zm1.024 0v.537h-2.716v-.537h2.716zm2.625 2.794v.535h-1.772v-.535h1.772zm-1.548-2.794v3.329h-.686v-3.329h.686zm1.317 1.356v.521h-1.541v-.521h1.541zm.229-1.356v.537h-1.77v-.537h1.77zm.402 0h1.242c.255 0 .473.038.656.114.184.076.326.189.425.338s.149.333.149.551c0 .178-.03.332-.091.46a.848.848 0 0 1-.254.318 1.295 1.295 0 0 1-.382.201l-.217.114h-1.079l-.005-.535h.803c.12 0 .22-.021.3-.064s.139-.102.178-.178a.552.552 0 0 0 .062-.265c0-.107-.02-.199-.059-.277s-.1-.137-.181-.178-.182-.062-.304-.062h-.556v2.792h-.686v-3.329zm1.862 3.329-.759-1.484.725-.005.768 1.457v.032h-.734zm3.601-1.186h-.848v-.535h.848a.69.69 0 0 0 .32-.064c.082-.044.143-.105.181-.183s.057-.165.057-.263c0-.099-.019-.191-.057-.277s-.098-.154-.181-.206-.189-.078-.32-.078h-.611v2.792h-.686v-3.329h1.297c.261 0 .484.047.67.142.187.093.331.222.43.386s.149.353.149.565c0 .215-.05.401-.149.558s-.242.278-.43.364a1.602 1.602 0 0 1-.67.128zm3.956.651v.535H40.39v-.535h1.772zm-1.548-2.794v3.329h-.686v-3.329h.686zm1.317 1.356v.521H40.39v-.521h1.541zm.229-1.356v.537h-1.77v-.537h1.77zm1.936 0v3.329h-.684v-3.329h.684zm1.025 0v.537h-2.716v-.537h2.716zm2.625 2.794v.535h-1.772v-.535h1.772zm-1.548-2.794v3.329h-.686v-3.329h.686zm1.317 1.356v.521h-1.541v-.521h1.541zm.229-1.356v.537h-1.77v-.537h1.77zm.402 0h1.242c.255 0 .473.038.656.114.184.076.326.189.425.338s.149.333.149.551c0 .178-.031.332-.091.46a.848.848 0 0 1-.254.318 1.295 1.295 0 0 1-.382.201l-.217.114h-1.079l-.005-.535h.803c.12 0 .22-.021.3-.064s.139-.102.178-.178a.552.552 0 0 0 .062-.265c0-.107-.02-.199-.059-.277s-.1-.137-.181-.178a.669.669 0 0 0-.304-.062h-.556v2.792h-.686v-3.329zm1.861 3.329-.759-1.484.725-.005.768 1.457v.032h-.734zm2.872-.871a.447.447 0 0 0-.027-.16.308.308 0 0 0-.096-.133c-.047-.041-.114-.082-.199-.121s-.196-.081-.332-.123a4.267 4.267 0 0 1-.43-.165 1.775 1.775 0 0 1-.357-.213.952.952 0 0 1-.242-.286.786.786 0 0 1-.087-.377c0-.139.03-.264.091-.377a.872.872 0 0 1 .256-.293c.11-.082.239-.146.389-.19.151-.044.316-.066.496-.066.245 0 .46.044.642.133s.325.21.425.364c.102.154.153.33.153.528h-.681a.513.513 0 0 0-.062-.256.421.421 0 0 0-.183-.176.648.648 0 0 0-.306-.064.7.7 0 0 0-.297.055.393.393 0 0 0-.178.144.351.351 0 0 0-.059.201c0 .056.014.107.041.153.029.046.072.088.128.128s.126.077.208.112c.082.035.178.069.286.103.181.055.341.117.478.185.139.069.255.146.348.231a.851.851 0 0 1 .281.658c0 .145-.028.274-.085.389s-.138.211-.245.29c-.107.079-.234.139-.382.181s-.313.062-.496.062c-.165 0-.327-.021-.487-.064a1.486 1.486 0 0 1-.437-.199c-.13-.088-.233-.201-.311-.338s-.117-.3-.117-.487h.688c0 .104.016.191.048.263s.077.13.135.174c.059.044.13.076.21.096.082.02.172.03.27.03a.745.745 0 0 0 .293-.05.356.356 0 0 0 .228-.341z" style="fill:var(--color4, #8e8f99)"/>
    </symbol>
    <symbol id="icon-group-5" viewBox="0 0 44 32">
      <path fill="#8e8f99" d="M3.333 26.694c.171.19.262.429.257.673.009.16-.023.319-.091.466s-.174.279-.307.384a1.857 1.857 0 0 1-1.157.31H0v-4.266h1.993a1.85 1.85 0 0 1 1.104.283c.129.097.231.22.298.358s.098.289.089.44a.917.917 0 0 1-.232.652c-.155.17-.368.287-.607.334.27.044.514.174.688.365zM.947 26.05h.852a.869.869 0 0 0 .542-.142c.064-.052.114-.117.145-.189s.045-.15.037-.228c.006-.077-.007-.155-.038-.227s-.08-.137-.142-.19a.896.896 0 0 0-.558-.144H.947v1.119zm1.477 1.636c.068-.053.122-.12.157-.195s.05-.157.044-.238c.005-.082-.011-.165-.046-.24s-.09-.143-.16-.197a.95.95 0 0 0-.579-.154H.946v1.173h.905a.973.973 0 0 0 .572-.148zM7.408 28.528l-1.109-1.667h-.417v1.667h-.954v-4.266h1.806a1.91 1.91 0 0 1 1.257.363c.252.232.405.537.429.86s-.08.645-.295.905c-.223.23-.527.383-.861.433l1.181 1.705H7.408zM5.882 26.28h.78c.542 0 .813-.215.813-.646.005-.088-.009-.176-.044-.259s-.087-.158-.155-.221a.912.912 0 0 0-.613-.173h-.789l.009 1.298zM12.621 27.67H10.72l-.336.859h-1l1.745-4.218h1.081l1.739 4.218h-1l-.329-.859zm-.255-.646-.694-1.801-.694 1.801h1.389zM19.147 28.528H18.2l-2.123-2.901v2.901h-.944v-4.266h.944L18.2 27.18v-2.918h.947v4.266zM24.55 27.507a1.96 1.96 0 0 1-.857.752c-.412.187-.869.28-1.331.269h-1.685v-4.266h1.685c.461-.011.918.079 1.331.263.362.164.661.424.857.744.195.347.296.73.296 1.119s-.102.772-.296 1.119zm-1.084-.102c.27-.283.419-.645.419-1.018s-.149-.735-.419-1.018a1.766 1.766 0 0 0-1.185-.363h-.657v2.761h.657c.433.024.859-.106 1.185-.363zM13.214.533s12.22 4.154 11.961 10.164v10.166s-12.211-4.156-11.957-10.166L13.213.533zM36.062 18.483c2.308-1.43 4.978-2.316 7.764-2.576v-3.182c-3.211 1.114-5.935 3.134-7.764 5.758z" style="fill:var(--color4, #8e8f99)"/>
      <path fill="#8e8f99" d="M34.675 19.442c1.889-3.424 5.164-6.067 9.151-7.384v-9.17S26.422 8.805 26.79 17.364v14.474s.776-.265 1.995-.761c0-.463 0-.929.056-1.398.36-3.974 2.459-7.656 5.834-10.237z" style="fill:var(--color4, #8e8f99)"/>
      <path fill="#8e8f99" d="M33.02 24.819c.091-1.004.295-1.997.609-2.963-2.102 2.229-3.374 4.995-3.639 7.909-.025.275-.039.55-.046.834a52.795 52.795 0 0 0 3.347-1.588 13.52 13.52 0 0 1-.271-4.191zM33.712 24.871a12.935 12.935 0 0 0 .215 3.795c4.755-2.561 10.098-6.519 9.892-11.302v-.417c-3.397.342-6.576 1.679-9.047 3.805a13.074 13.074 0 0 0-1.06 4.118z" style="fill:var(--color4, #8e8f99)"/>
    </symbol>
    <symbol id="icon-Group" viewBox="0 0 29 32">
      <path d="M27.75 13.653a1.99 1.99 0 0 0-1.334-.791 1.992 1.992 0 0 0-1.504.395l-1.406 1.078-2.131 1.591-1.525-.607c2.719-1.22 4.619-3.939 4.619-7.096 0-4.293-3.506-7.785-7.816-7.785S8.837 3.93 8.837 8.223c0 1.556.465 3.003 1.258 4.22l-3.103-.027h-.005c-.01 0-.017.005-.026.005a.556.556 0 0 0-.174.035c-.014.005-.029.008-.043.015l-.022.007-3.63 1.792-.001.001-2.126 1.022a.468.468 0 0 0-.071.04 2 2 0 0 0 .514 3.575 2.008 2.008 0 0 0 1.548-.144l1.558-.829 2.542-1.313 1.523-.009-6.11 6.081-.002.001-1.503 1.497c-.355.353-.55.822-.55 1.322s.195.97.55 1.323c.365.363.844.545 1.324.545s.959-.182 1.325-.545l1.476-1.47 1.955-1.459 1.011 1.007-1.978 1.97-.002.001-1.503 1.497c-.355.353-.55.822-.55 1.322s.195.97.55 1.323c.365.363.845.545 1.325.545s.96-.182 1.325-.545l3.909-3.892.001-.002 1.134-1.123-.004-.004c.007-.007.017-.01.025-.017l5.8-6.353 3.897.555a.583.583 0 0 0 .294-.037c.02-.007.037-.017.056-.026.022-.011.044-.017.065-.03l3.608-2.395c.013-.009.02-.023.033-.033.014-.011.032-.016.045-.029l1.428-1.337a1.998 1.998 0 0 0 .238-2.652zM2.392 17.707a.802.802 0 0 1-.627.058.802.802 0 0 1-.238-1.415l1.475-.71.504 1.474-1.114.592zm3.927-2.052-1.738.898-.493-1.441 2.276-1.123-.044 1.666zm16.953-7.434a6.515 6.515 0 0 1-.672 2.874l-4.695-2.132a2.088 2.088 0 0 0-.885-1.558l1.644-5.457c2.67.849 4.609 3.34 4.609 6.274zm-13.236 0c0-3.632 2.969-6.587 6.618-6.587.284 0 .562.024.837.059l-1.608 5.338c-.022-.001-.042-.007-.064-.007-1.159 0-2.102.94-2.102 2.096s.943 2.096 2.102 2.096c.78 0 1.453-.431 1.817-1.061l4.337 1.97a6.616 6.616 0 0 1-5.318 2.683c-3.649 0-6.618-2.955-6.618-6.587zm6.687.899c0 .495-.406.898-.905.898s-.905-.403-.905-.898.406-.898.905-.898.905.403.905.898zM2.768 25.989a.683.683 0 0 1-.959.001.667.667 0 0 1 0-.948l1.08-1.076.956.952-1.077 1.072zm3.608 4.192a.683.683 0 0 1-.96.001.667.667 0 0 1 0-.948l1.081-1.077.956.952-1.077 1.072zm3.909-3.895-.002.001-1.982 1.976-.956-.952 1.98-1.971v-.001l.002-.001c.045-.045.073-.099.101-.152.008-.016.023-.029.029-.045.019-.046.022-.096.029-.144.004-.028.016-.053.016-.081 0-.04-.014-.079-.023-.119-.007-.036-.007-.073-.021-.107a.64.64 0 0 0-.102-.155c-.011-.013-.016-.03-.028-.043h-.001l-.001-.002-1.804-1.796c-.019-.019-.044-.027-.065-.043a.575.575 0 0 0-.098-.065.57.57 0 0 0-.105-.037.553.553 0 0 0-.116-.022.634.634 0 0 0-.107.005.59.59 0 0 0-.117.023c-.038.012-.071.031-.106.05-.022.013-.047.017-.068.032l-1.991 1.486-1.011-1.007 2.694-2.679 4.896 4.815-1.041 1.032zm7.657-7.879c-.017-.002-.034.004-.051.003a.617.617 0 0 0-.336.085.521.521 0 0 0-.093.069c-.014.013-.032.019-.045.033l-5.275 5.778-4.86-4.779 3.181-3.164a.6.6 0 0 0-.426-1.022v-.001l-2.491.015.031-1.805 3.485.03a7.8 7.8 0 0 0 5.593 2.359c.491 0 .97-.051 1.437-.138.045.036.089.073.146.095l2.706 1.078.171.852.2.994-3.371-.48zm4.537.201-.352-1.749 1.624-1.213 1.063 1.411-2.335 1.551zm4.215-3.179-.941.882-1.046-1.388.934-.716a.811.811 0 0 1 1.149.158.802.802 0 0 1-.096 1.064z"/>
    </symbol>
    <symbol id="icon-instagram-2" viewBox="0 0 32 32">
      <path d="M31.969 9.408c-.075-1.7-.35-2.869-.744-3.882a7.803 7.803 0 0 0-1.85-2.838A7.867 7.867 0 0 0 26.543.844C25.524.45 24.361.175 22.661.1 20.948.019 20.404 0 16.06 0s-4.888.019-6.595.094c-1.7.075-2.869.35-3.882.744a7.803 7.803 0 0 0-2.838 1.85A7.867 7.867 0 0 0 .901 5.52C.507 6.539.232 7.702.157 9.402c-.081 1.713-.1 2.257-.1 6.601s.019 4.888.094 6.595c.075 1.7.35 2.869.744 3.882a7.895 7.895 0 0 0 1.85 2.838 7.867 7.867 0 0 0 2.832 1.844c1.019.394 2.182.669 3.882.744 1.706.075 2.25.094 6.595.094s4.888-.018 6.595-.094c1.7-.075 2.869-.35 3.882-.744a8.181 8.181 0 0 0 4.682-4.682c.394-1.019.669-2.182.744-3.882.075-1.707.094-2.251.094-6.595s-.006-4.888-.081-6.595zm-2.882 13.065c-.069 1.563-.331 2.407-.55 2.969a5.307 5.307 0 0 1-3.038 3.038c-.563.219-1.413.481-2.969.55-1.688.075-2.194.094-6.464.094s-4.782-.018-6.464-.094c-1.563-.069-2.407-.331-2.969-.55a4.926 4.926 0 0 1-1.838-1.194 4.974 4.974 0 0 1-1.194-1.838c-.219-.563-.481-1.413-.55-2.969-.075-1.688-.094-2.194-.094-6.464s.019-4.782.094-6.464c.069-1.563.331-2.407.55-2.969a4.868 4.868 0 0 1 1.2-1.838A4.974 4.974 0 0 1 6.639 3.55c.563-.219 1.413-.481 2.969-.55 1.688-.075 2.194-.094 6.464-.094 4.276 0 4.782.019 6.464.094 1.563.069 2.407.331 2.969.55a4.914 4.914 0 0 1 1.838 1.194 4.974 4.974 0 0 1 1.194 1.838c.219.563.481 1.413.55 2.969.075 1.688.094 2.194.094 6.464s-.019 4.77-.094 6.457z"/>
      <path d="M16.059 7.782c-4.538 0-8.22 3.682-8.22 8.22s3.682 8.22 8.22 8.22 8.22-3.682 8.22-8.22-3.682-8.22-8.22-8.22zm0 13.553a5.333 5.333 0 0 1 0-10.664 5.333 5.333 0 0 1 0 10.664zM26.524 7.457a1.919 1.919 0 1 1-3.838 0 1.919 1.919 0 0 1 3.838 0z"/>
    </symbol>
    <symbol id="icon-linkedin-1" viewBox="0 0 32 32">
      <path d="M31.992 32v-.001H32V20.263c0-5.741-1.236-10.164-7.948-10.164-3.227 0-5.392 1.771-6.276 3.449h-.093v-2.913h-6.364v21.364h6.627V21.42c0-2.785.528-5.479 3.977-5.479 3.399 0 3.449 3.179 3.449 5.657v10.401h6.62zM.528 10.636h6.635V32H.528V10.636zM3.843 0C1.722 0 0 1.721 0 3.843s1.721 3.879 3.843 3.879c2.121 0 3.843-1.757 3.843-3.879A3.846 3.846 0 0 0 3.843 0z"/>
    </symbol>
    <symbol id="icon-Logo" viewBox="0 0 59 32">
      <path fill="#8e8f99" d="M30.588 15.682a1.685 1.685 0 0 1-.346-1.138v-1.65c0-.506.115-.89.344-1.153s.624-.394 1.183-.393c.525 0 .898.112 1.119.336.24.286.358.635.331.987v.388h-.94v-.393a2.056 2.056 0 0 0-.027-.384.373.373 0 0 0-.134-.228.541.541 0 0 0-.34-.089.577.577 0 0 0-.358.094.443.443 0 0 0-.156.252 1.93 1.93 0 0 0-.037.408v2.003c-.015.193.027.387.121.562.047.06.112.107.188.136s.16.041.242.032c.12.009.24-.024.333-.091a.4.4 0 0 0 .14-.243 2.16 2.16 0 0 0 .029-.401v-.406h.94v.371c.026.367-.088.732-.325 1.038-.216.245-.584.368-1.125.368s-.949-.131-1.181-.403zM34.501 15.699c-.237-.257-.356-.631-.356-1.127v-1.736c0-.49.119-.861.356-1.113s.634-.377 1.191-.376c.553 0 .947.125 1.185.376.237.252.358.623.358 1.113v1.736c0 .49-.121.866-.362 1.125s-.634.388-1.181.388-.951-.131-1.191-.386zm1.628-.417a.968.968 0 0 0 .113-.514v-2.125a.943.943 0 0 0-.111-.504c-.048-.061-.114-.109-.192-.138s-.164-.04-.248-.03c-.084-.01-.17 0-.248.03s-.145.077-.193.138a.922.922 0 0 0-.113.504v2.136a.95.95 0 0 0 .113.514c.055.054.122.098.198.127a.68.68 0 0 0 .484 0 .59.59 0 0 0 .198-.127v-.01zM38.364 11.398h1.012l.761 3.203.778-3.203h.984l.099 4.623h-.728l-.078-3.213-.751 3.213h-.584l-.778-3.225-.072 3.225h-.735l.091-4.623zM43.133 11.398h1.576c.908 0 1.362.438 1.362 1.313 0 .838-.478 1.257-1.434 1.256H44.1v2.055h-.973l.006-4.623zm1.346 1.976c.096.011.194.003.286-.022s.177-.067.249-.124a.744.744 0 0 0 .14-.522 1.457 1.457 0 0 0-.047-.42c-.014-.046-.038-.089-.072-.127s-.075-.069-.123-.093a1.012 1.012 0 0 0-.434-.074h-.377v1.382h.377zM47.474 11.398h1.045l1.072 4.623h-.907l-.212-1.066h-.932l-.218 1.066h-.92l1.072-4.623zm.893 3.021-.364-1.941-.364 1.941h.728zM50.456 11.398h.681l1.304 2.637v-2.637h.807v4.623H52.6l-1.311-2.753v2.753h-.835l.002-4.623zM55.139 14.258l-1.084-2.854h.912l.661 1.833.621-1.833h.893l-1.07 2.854v1.763h-.934v-1.763zM32.09 18.042v.242h-.794v1.879h-.333v-1.879h-.798v-.242h1.924zM34.578 20.163h-.257a.119.119 0 0 1-.072-.02.113.113 0 0 1-.043-.049l-.23-.504h-1.101l-.23.504a.147.147 0 0 1-.035.057.119.119 0 0 1-.072.02h-.257l.973-2.12h.339l.984 2.112zm-1.61-.788h.918l-.389-.863a1.447 1.447 0 0 1-.072-.2l-.037.113-.035.089-.385.861zM36.256 19.954c.061.003.122.003.183 0 .053-.005.105-.013.156-.025.048-.01.094-.023.14-.039.043-.015.086-.034.13-.052v-.477h-.389c-.01 0-.019-.001-.028-.004a.07.07 0 0 1-.039-.03.038.038 0 0 1-.005-.021v-.163h.755v.813a1.497 1.497 0 0 1-.654.217 2.687 2.687 0 0 1-.284.013 1.497 1.497 0 0 1-.49-.079 1.178 1.178 0 0 1-.389-.222 1.028 1.028 0 0 1-.251-.336 1.07 1.07 0 0 1-.09-.44 1.099 1.099 0 0 1 .088-.443.97.97 0 0 1 .251-.336 1.19 1.19 0 0 1 .389-.22c.167-.054.343-.081.521-.079.091 0 .181.006.27.018a1.273 1.273 0 0 1 .595.249l-.093.131c-.007.012-.018.022-.032.029s-.029.011-.044.011a.123.123 0 0 1-.06-.017 1.127 1.127 0 0 1-.095-.05.947.947 0 0 0-.13-.057 1.208 1.208 0 0 0-.426-.065 1.165 1.165 0 0 0-.376.059.835.835 0 0 0-.286.168.734.734 0 0 0-.181.264.99.99 0 0 0 0 .707c.043.1.109.191.195.267.08.073.177.13.284.168.124.037.255.051.385.042zM39.357 19.921h1.062v.242h-1.387v-2.12h.333l-.008 1.879zM41.524 20.162h-.333v-2.12h.333v2.12zM42.761 18.052c.02.01.037.023.051.039l1.422 1.598a.482.482 0 0 1 0-.076V18.033h.29v2.129h-.167a.146.146 0 0 1-.072-.012.211.211 0 0 1-.053-.04l-1.42-1.597v1.649h-.278v-2.12h.173a.14.14 0 0 1 .054.01zM46.974 18.042v.233h-1.179v.7h.955v.225h-.955v.724h1.179v.233h-1.521v-2.115h1.521zM12.112 4.948l14.772 3.619V21.25l-14.772-3.618V4.947zm-.948-1.081v14.382l16.666 4.084V7.953L11.164 3.867z" style="fill:var(--color4, #8e8f99)"/>
      <path fill="#8e8f99" d="M20.096 29.01 3.429 24.922V10.541l16.667 4.086v14.382z" style="fill:var(--color4, #8e8f99)"/>
      <path fill="#8e8f99" d="m11.44 4.785 14.58 3.574-6.2 5.352-14.582-3.576 6.202-5.35zm-.276-.918-7.735 6.675 16.667 4.086 7.733-6.675-16.666-4.086zM21.034 28.201l6.796-5.866-6.796-1.667V28.2z" style="fill:var(--color4, #8e8f99)"/>
    </symbol>
    <symbol id="icon-twitter-1" viewBox="0 0 32 32">
      <path fill="#f4f4fd" d="M32 6.078c-1.19.522-2.458.868-3.78 1.036a6.523 6.523 0 0 0 2.886-3.626 13.11 13.11 0 0 1-4.16 1.588A6.574 6.574 0 0 0 22.154 3c-3.632 0-6.556 2.948-6.556 6.562 0 .52.044 1.02.152 1.496-5.454-.266-10.28-2.88-13.522-6.862a6.605 6.605 0 0 0-.898 3.316 6.57 6.57 0 0 0 2.914 5.452 6.479 6.479 0 0 1-2.964-.808v.072c0 3.188 2.274 5.836 5.256 6.446a6.548 6.548 0 0 1-1.72.216 5.8 5.8 0 0 1-1.242-.112c.85 2.598 3.262 4.508 6.13 4.57a13.182 13.182 0 0 1-8.134 2.798c-.538 0-1.054-.024-1.57-.09A18.469 18.469 0 0 0 10.064 29c12.072 0 18.672-10 18.672-18.668 0-.29-.01-.57-.024-.848A13.087 13.087 0 0 0 32 6.078z" style="fill:var(--color3, #f4f4fd)"/>
    </symbol>
    <symbol id="icon-Vector" viewBox="0 0 32 32">
      <path d="M32 3.223 28.777 0 16 12.777 3.223 0 0 3.223 12.777 16 0 28.777 3.223 32 16 19.223 28.777 32 32 28.777 19.223 16 32 3.223z"/>
    </symbol>
    <symbol id="icon-bell" viewBox="0 0 32 32">
      <path d="M32.047 25c0-9-8-7-8-14 0-.58-.056-1.076-.158-1.498-.526-3.532-2.88-6.366-5.93-7.23.027-.123.041-.251.041-.382 0-1.04-.9-1.891-2-1.891S14 .85 14 1.89c0 .131.014.258.041.382-3.421.969-5.966 4.416-6.039 8.545L8 11c0 7-8 5-8 14 0 2.382 5.331 4.375 12.468 4.878a3.998 3.998 0 0 0 7.064 0C26.669 29.375 32 27.383 32 25l-.001-.021.048.021zm-6.227 1.691c-1.695.452-3.692.777-5.837.958a4 4 0 0 0-7.968 0c-2.144-.18-4.142-.506-5.837-.958-2.332-.622-3.447-1.318-3.855-1.691.408-.372 1.523-1.068 3.855-1.691 2.712-.724 6.199-1.122 9.82-1.122s7.109.398 9.82 1.122c2.332.622 3.447 1.318 3.855 1.691-.408.372-1.523 1.068-3.855 1.691z"/>
    </symbol>
    <symbol id="icon-facebook-1" viewBox="0 0 32 32">
<path d="M21.329 5.313h2.921v-5.088c-0.504-0.069-2.237-0.225-4.256-0.225-4.212 0-7.097 2.649-7.097 7.519v4.481h-4.648v5.688h4.648v14.312h5.699v-14.311h4.46l0.708-5.688h-5.169v-3.919c0.001-1.644 0.444-2.769 2.735-2.769z"></path>
</symbol>
<symbol id="icon-checkbox-icon" viewBox="0 0 32 32">
<path stroke-linejoin="miter" stroke-linecap="butt" stroke-miterlimit="4" stroke-width="2" d="M4 1h24c1.657 0 3 1.343 3 3v24c0 1.657-1.343 3-3 3h-24c-1.657 0-3-1.343-3-3v-24c0-1.657 1.343-3 3-3z"></path>
</symbol>
<symbol id="icon-name-icon" viewBox="0 0 32 32">
<path d="M16 16c2.947 0 5.333-2.387 5.333-5.333s-2.387-5.333-5.333-5.333c-2.947 0-5.333 2.387-5.333 5.333s2.387 5.333 5.333 5.333zM16 18.667c-3.56 0-10.667 1.787-10.667 5.333v1.333c0 0.733 0.6 1.333 1.333 1.333h18.667c0.733 0 1.333-0.6 1.333-1.333v-1.333c0-3.547-7.107-5.333-10.667-5.333z"></path>
</symbol>
<symbol id="icon-phone-icon" viewBox="0 0 24 32">
<path d="M19.635 18.487l-2.451-0.28c-0.589-0.067-1.167 0.135-1.582 0.55l-1.775 1.775c-2.731-1.389-4.969-3.618-6.359-6.359l1.785-1.785c0.415-0.415 0.618-0.994 0.55-1.582l-0.28-2.432c-0.116-0.975-0.936-1.708-1.92-1.708h-1.669c-1.090 0-1.997 0.907-1.93 1.997 0.511 8.24 7.102 14.821 15.332 15.332 1.090 0.068 1.997-0.839 1.997-1.93v-1.669c0.010-0.975-0.724-1.795-1.698-1.911z"></path>
</symbol>
<symbol id="icon-email-icon" viewBox="0 0 24 32">
<path d="M20 8h-16c-1.1 0-1.99 0.9-1.99 2l-0.010 12c0 1.1 0.9 2 2 2h16c1.1 0 2-0.9 2-2v-12c0-1.1-0.9-2-2-2zM19.6 12.25l-7.070 4.42c-0.32 0.2-0.74 0.2-1.060 0l-7.070-4.42c-0.25-0.16-0.4-0.43-0.4-0.72 0-0.67 0.73-1.070 1.3-0.72l6.7 4.19 6.7-4.19c0.57-0.35 1.3 0.050 1.3 0.72 0 0.29-0.15 0.56-0.4 0.72z"></path>
</symbol>
<symbol id="icon-check" viewBox="0 0 40 32">
<path d="M33.782 1.020c0.691-0.662 1.611-1.027 2.565-1.020s1.869 0.387 2.55 1.059c0.681 0.672 1.076 1.584 1.101 2.543s-0.321 1.891-0.966 2.598l-19.578 24.617c-0.337 0.365-0.743 0.657-1.195 0.86s-0.939 0.312-1.434 0.322c-0.495 0.009-0.986-0.082-1.445-0.268s-0.876-0.463-1.226-0.815l-12.984-13.054c-0.362-0.339-0.652-0.747-0.853-1.201s-0.309-0.944-0.318-1.441 0.082-0.99 0.267-1.451c0.185-0.461 0.461-0.879 0.81-1.231s0.766-0.628 1.224-0.814 0.949-0.277 1.443-0.269c0.494 0.009 0.981 0.118 1.433 0.32s0.858 0.494 1.195 0.857l10.275 10.325 17.042-21.83c0.031-0.038 0.063-0.074 0.098-0.109h-0.005z"></path>
</symbol>
<symbol id="icon-frame" viewBox="0 0 32 32">
<path d="M32 2.667l-32 15 10.227 3.156 15.773-12.323-11.998 13.488 0.010 0.003-0.012-0.003v7.345l5.735-5.576 7.265 2.242 5-23.333z"></path>
</symbol>
  </defs>
</svg>
